  0
SECTION
  2
HEADER
  9
$ACADVER
  1
AC1018
  9
$ACADMAINTVER
 70
     0
  9
$DWGCODEPAGE
  3
ANSI_1252
  9
$INSBASE
 10
0.0
 20
0.0
 30
0.0
  9
$EXTMIN
 10
1.000000000000000E+20
 20
1.000000000000000E+20
 30
1.000000000000000E+20
  9
$EXTMAX
 10
-1.000000000000000E+20
 20
-1.000000000000000E+20
 30
-1.000000000000000E+20
  9
$LIMMIN
 10
0.0
 20
0.0
  9
$LIMMAX
 10
12.0
 20
9.0
  9
$ORTHOMODE
 70
     0
  9
$REGENMODE
 70
     1
  9
$FILLMODE
 70
     1
  9
$QTEXTMODE
 70
     0
  9
$MIRRTEXT
 70
     1
  9
$LTSCALE
 40
1.0
  9
$ATTMODE
 70
     1
  9
$TEXTSIZE
 40
0.2
  9
$TRACEWID
 40
0.05
  9
$TEXTSTYLE
  7
Standard
  9
$CLAYER
  8
0
  9
$CELTYPE
  6
ByLayer
  9
$CECOLOR
 62
   256
  9
$CELTSCALE
 40
1.0
  9
$DISPSILH
 70
     0
  9
$DIMSCALE
 40
1.0
  9
$DIMASZ
 40
0.18
  9
$DIMEXO
 40
0.0625
  9
$DIMDLI
 40
0.38
  9
$DIMRND
 40
0.0
  9
$DIMDLE
 40
0.0
  9
$DIMEXE
 40
0.18
  9
$DIMTP
 40
0.0
  9
$DIMTM
 40
0.0
  9
$DIMTXT
 40
0.18
  9
$DIMCEN
 40
0.09
  9
$DIMTSZ
 40
0.0
  9
$DIMTOL
 70
     0
  9
$DIMLIM
 70
     0
  9
$DIMTIH
 70
     1
  9
$DIMTOH
 70
     1
  9
$DIMSE1
 70
     0
  9
$DIMSE2
 70
     0
  9
$DIMTAD
 70
     0
  9
$DIMZIN
 70
     0
  9
$DIMBLK
  1

  9
$DIMASO
 70
     1
  9
$DIMSHO
 70
     1
  9
$DIMPOST
  1

  9
$DIMAPOST
  1

  9
$DIMALT
 70
     0
  9
$DIMALTD
 70
     2
  9
$DIMALTF
 40
25.4
  9
$DIMLFAC
 40
1.0
  9
$DIMTOFL
 70
     0
  9
$DIMTVP
 40
0.0
  9
$DIMTIX
 70
     0
  9
$DIMSOXD
 70
     0
  9
$DIMSAH
 70
     0
  9
$DIMBLK1
  1

  9
$DIMBLK2
  1

  9
$DIMSTYLE
  2
Standard
  9
$DIMCLRD
 70
     0
  9
$DIMCLRE
 70
     0
  9
$DIMCLRT
 70
     0
  9
$DIMTFAC
 40
1.0
  9
$DIMGAP
 40
0.09
  9
$DIMJUST
 70
     0
  9
$DIMSD1
 70
     0
  9
$DIMSD2
 70
     0
  9
$DIMTOLJ
 70
     1
  9
$DIMTZIN
 70
     0
  9
$DIMALTZ
 70
     0
  9
$DIMALTTZ
 70
     0
  9
$DIMUPT
 70
     0
  9
$DIMDEC
 70
     4
  9
$DIMTDEC
 70
     4
  9
$DIMALTU
 70
     2
  9
$DIMALTTD
 70
     2
  9
$DIMTXSTY
  7
Standard
  9
$DIMAUNIT
 70
     0
  9
$DIMADEC
 70
     0
  9
$DIMALTRND
 40
0.0
  9
$DIMAZIN
 70
     0
  9
$DIMDSEP
 70
    46
  9
$DIMATFIT
 70
     3
  9
$DIMFRAC
 70
     0
  9
$DIMLDRBLK
  1

  9
$DIMLUNIT
 70
     2
  9
$DIMLWD
 70
    -2
  9
$DIMLWE
 70
    -2
  9
$DIMTMOVE
 70
     0
  9
$LUNITS
 70
     2
  9
$LUPREC
 70
     4
  9
$SKETCHINC
 40
0.1
  9
$FILLETRAD
 40
0.5
  9
$AUNITS
 70
     0
  9
$AUPREC
 70
     0
  9
$MENU
  1
.
  9
$ELEVATION
 40
0.0
  9
$PELEVATION
 40
0.0
  9
$THICKNESS
 40
0.0
  9
$LIMCHECK
 70
     0
  9
$CHAMFERA
 40
0.5
  9
$CHAMFERB
 40
0.5
  9
$CHAMFERC
 40
1.0
  9
$CHAMFERD
 40
0.0
  9
$SKPOLY
 70
     0
  9
$TDCREATE
 40
2457735.028105567
  9
$TDUCREATE
 40
2457735.2364389
  9
$TDUPDATE
 40
2457735.028105579
  9
$TDUUPDATE
 40
2457735.236438912
  9
$TDINDWG
 40
0.0000000116
  9
$TDUSRTIMER
 40
0.0000000116
  9
$USRTIMER
 70
     1
  9
$ANGBASE
 50
0.0
  9
$ANGDIR
 70
     0
  9
$PDMODE
 70
     0
  9
$PDSIZE
 40
0.0
  9
$PLINEWID
 40
0.0
  9
$SPLFRAME
 70
     0
  9
$SPLINETYPE
 70
     6
  9
$SPLINESEGS
 70
     8
  9
$HANDSEED
  5
161
  9
$SURFTAB1
 70
     6
  9
$SURFTAB2
 70
     6
  9
$SURFTYPE
 70
     6
  9
$SURFU
 70
     6
  9
$SURFV
 70
     6
  9
$UCSBASE
  2

  9
$UCSNAME
  2

  9
$UCSORG
 10
0.0
 20
0.0
 30
0.0
  9
$UCSXDIR
 10
1.0
 20
0.0
 30
0.0
  9
$UCSYDIR
 10
0.0
 20
1.0
 30
0.0
  9
$UCSORTHOREF
  2

  9
$UCSORTHOVIEW
 70
     0
  9
$UCSORGTOP
 10
0.0
 20
0.0
 30
0.0
  9
$UCSORGBOTTOM
 10
0.0
 20
0.0
 30
0.0
  9
$UCSORGLEFT
 10
0.0
 20
0.0
 30
0.0
  9
$UCSORGRIGHT
 10
0.0
 20
0.0
 30
0.0
  9
$UCSORGFRONT
 10
0.0
 20
0.0
 30
0.0
  9
$UCSORGBACK
 10
0.0
 20
0.0
 30
0.0
  9
$PUCSBASE
  2

  9
$PUCSNAME
  2

  9
$PUCSORG
 10
0.0
 20
0.0
 30
0.0
  9
$PUCSXDIR
 10
1.0
 20
0.0
 30
0.0
  9
$PUCSYDIR
 10
0.0
 20
1.0
 30
0.0
  9
$PUCSORTHOREF
  2

  9
$PUCSORTHOVIEW
 70
     0
  9
$PUCSORGTOP
 10
0.0
 20
0.0
 30
0.0
  9
$PUCSORGBOTTOM
 10
0.0
 20
0.0
 30
0.0
  9
$PUCSORGLEFT
 10
0.0
 20
0.0
 30
0.0
  9
$PUCSORGRIGHT
 10
0.0
 20
0.0
 30
0.0
  9
$PUCSORGFRONT
 10
0.0
 20
0.0
 30
0.0
  9
$PUCSORGBACK
 10
0.0
 20
0.0
 30
0.0
  9
$USERI1
 70
     0
  9
$USERI2
 70
     0
  9
$USERI3
 70
     0
  9
$USERI4
 70
     0
  9
$USERI5
 70
     0
  9
$USERR1
 40
0.0
  9
$USERR2
 40
0.0
  9
$USERR3
 40
0.0
  9
$USERR4
 40
0.0
  9
$USERR5
 40
0.0
  9
$WORLDVIEW
 70
     1
  9
$SHADEDGE
 70
     3
  9
$SHADEDIF
 70
    70
  9
$TILEMODE
 70
     1
  9
$MAXACTVP
 70
    64
  9
$PINSBASE
 10
0.0
 20
0.0
 30
0.0
  9
$PLIMCHECK
 70
     0
  9
$PEXTMIN
 10
1.000000000000000E+20
 20
1.000000000000000E+20
 30
1.000000000000000E+20
  9
$PEXTMAX
 10
-1.000000000000000E+20
 20
-1.000000000000000E+20
 30
-1.000000000000000E+20
  9
$PLIMMIN
 10
0.0
 20
0.0
  9
$PLIMMAX
 10
12.0
 20
9.0
  9
$UNITMODE
 70
     0
  9
$VISRETAIN
 70
     1
  9
$PLINEGEN
 70
     0
  9
$PSLTSCALE
 70
     1
  9
$TREEDEPTH
 70
  3020
  9
$CMLSTYLE
  2
Standard
  9
$CMLJUST
 70
     0
  9
$CMLSCALE
 40
1.0
  9
$PROXYGRAPHICS
 70
     1
  9
$MEASUREMENT
 70
     0
  9
$CELWEIGHT
370
    -1
  9
$ENDCAPS
280
     0
  9
$JOINSTYLE
280
     0
  9
$LWDISPLAY
290
     1
  9
$INSUNITS
 70
     1
  9
$HYPERLINKBASE
  1

  9
$STYLESHEET
  1

  9
$XEDIT
290
     1
  9
$CEPSNTYPE
380
     0
  9
$PSTYLEMODE
290
     1
  9
$FINGERPRINTGUID
  2
{863170F8-F5BE-41F0-BE99-2BAB4B48D0D5}
  9
$VERSIONGUID
  2
{FAEB1C32-E019-11D5-929B-00C0DF256EC4}
  9
$EXTNAMES
290
     1
  9
$PSVPSCALE
 40
0.0
  9
$OLESTARTUP
290
     0
  9
$SORTENTS
280
   127
  9
$INDEXCTL
280
     0
  9
$HIDETEXT
280
     1
  9
$XCLIPFRAME
290
     0
  9
$HALOGAP
280
     0
  9
$OBSCOLOR
 70
   257
  9
$OBSLTYPE
280
     0
  9
$INTERSECTIONDISPLAY
280
     0
  9
$INTERSECTIONCOLOR
 70
   257
  9
$DIMASSOC
280
     2
  9
$PROJECTNAME
  1

  0
ENDSEC
  0
SECTION
  2
CLASSES
  0
CLASS
  1
ACDBDICTIONARYWDFLT
  2
AcDbDictionaryWithDefault
  3
ObjectDBX Classes
 90
        0
 91
        3
280
     0
281
     0
  0
CLASS
  1
VISUALSTYLE
  2
AcDbVisualStyle
  3
ObjectDBX Classes
 90
     4095
 91
        3
280
     0
281
     0
  0
ENDSEC
  0
SECTION
  2
TABLES
  0
TABLE
  2
VPORT
  5
8
330
0
100
AcDbSymbolTable
 70
     1
  0
VPORT
  5
29
330
8
100
AcDbSymbolTableRecord
100
AcDbViewportTableRecord
  2
*Active
 70
     0
 10
0.0
 20
0.0
 11
1.0
 21
1.0
 12
0.0
 22
0.0
 13
0.0
 23
0.0
 14
0.5
 24
0.5
 15
0.5
 25
0.5
 16
0.0
 26
0.0
 36
1.0
 17
5.5
 27
-4.25
 37
0.0
 40
8.5
 41
1.294117647058824
 42
50.0
 43
0.0
 44
0.0
 50
0.0
 51
0.0
 71
     0
 72
   100
 73
     1
 74
     3
 75
     0
 76
     0
 77
     0
 78
     0
281
     0
 65
     1
110
0.0
120
0.0
130
0.0
111
1.0
121
0.0
131
0.0
112
0.0
122
1.0
132
0.0
 79
     0
146
0.0
  0
ENDTAB
  0
TABLE
  2
LTYPE
  5
5
330
0
100
AcDbSymbolTable
 70
     1
  0
LTYPE
  5
14
330
5
100
AcDbSymbolTableRecord
100
AcDbLinetypeTableRecord
  2
ByBlock
 70
     0
  3

 72
    65
 73
     0
 40
0.0
  0
LTYPE
  5
15
330
5
100
AcDbSymbolTableRecord
100
AcDbLinetypeTableRecord
  2
ByLayer
 70
     0
  3

 72
    65
 73
     0
 40
0.0
  0
LTYPE
  5
16
330
5
100
AcDbSymbolTableRecord
100
AcDbLinetypeTableRecord
  2
Continuous
 70
     0
  3
Solid line
 72
    65
 73
     0
 40
0.0
  0
ENDTAB
  0
TABLE
  2
LAYER
  5
2
330
0
100
AcDbSymbolTable
 70
     2
  0
LAYER
  5
10
330
2
100
AcDbSymbolTableRecord
100
AcDbLayerTableRecord
  2
0
 70
     0
 62
     7
  6
Continuous
370
    -3
390
F
  0
LAYER
  5
3B
330
2
100
AcDbSymbolTableRecord
100
AcDbLayerTableRecord
  2
Layer 1
 70
     0
 62
     7
  6
Continuous
370
    -3
390
F
  0
ENDTAB
  0
TABLE
  2
STYLE
  5
3
330
0
100
AcDbSymbolTable
 70
     1
  0
STYLE
  5
11
330
3
100
AcDbSymbolTableRecord
100
AcDbTextStyleTableRecord
  2
Standard
 70
     0
 40
0.0
 41
1.0
 50
0.0
 71
     0
 42
0.2
  3
txt
  4

  0
ENDTAB
  0
TABLE
  2
VIEW
  5
6
330
0
100
AcDbSymbolTable
 70
     0
  0
ENDTAB
  0
TABLE
  2
UCS
  5
7
330
0
100
AcDbSymbolTable
 70
     0
  0
ENDTAB
  0
TABLE
  2
APPID
  5
9
330
0
100
AcDbSymbolTable
 70
     1
  0
APPID
  5
12
330
9
100
AcDbSymbolTableRecord
100
AcDbRegAppTableRecord
  2
ACAD
 70
     0
  0
ENDTAB
  0
TABLE
  2
DIMSTYLE
  5
A
330
0
100
AcDbSymbolTable
 70
     1
100
AcDbDimStyleTable
  0
DIMSTYLE
105
27
330
A
100
AcDbSymbolTableRecord
100
AcDbDimStyleTableRecord
  2
Standard
 70
     0
340
11
  0
ENDTAB
  0
TABLE
  2
BLOCK_RECORD
  5
1
330
0
100
AcDbSymbolTable
 70
    45
  0
BLOCK_RECORD
  5
1F
330
1
100
AcDbSymbolTableRecord
100
AcDbBlockTableRecord
  2
*Model_Space
340
22
  0
BLOCK_RECORD
  5
1B
330
1
100
AcDbSymbolTableRecord
100
AcDbBlockTableRecord
  2
*Paper_Space
340
1E
  0
BLOCK_RECORD
  5
23
330
1
100
AcDbSymbolTableRecord
100
AcDbBlockTableRecord
  2
*Paper_Space0
340
26
  0
BLOCK_RECORD
  5
3C
330
1
100
AcDbSymbolTableRecord
100
AcDbBlockTableRecord
  2
block 2
340
0
102
{BLKREFS
331
3D
102
}
  0
BLOCK_RECORD
  5
40
330
1
100
AcDbSymbolTableRecord
100
AcDbBlockTableRecord
  2
block 3
340
0
102
{BLKREFS
331
41
102
}
  0
BLOCK_RECORD
  5
48
330
1
100
AcDbSymbolTableRecord
100
AcDbBlockTableRecord
  2
block 4
340
0
102
{BLKREFS
331
49
102
}
  0
BLOCK_RECORD
  5
50
330
1
100
AcDbSymbolTableRecord
100
AcDbBlockTableRecord
  2
block 5
340
0
102
{BLKREFS
331
51
102
}
  0
BLOCK_RECORD
  5
58
330
1
100
AcDbSymbolTableRecord
100
AcDbBlockTableRecord
  2
block 6
340
0
102
{BLKREFS
331
59
102
}
  0
BLOCK_RECORD
  5
60
330
1
100
AcDbSymbolTableRecord
100
AcDbBlockTableRecord
  2
block 7
340
0
102
{BLKREFS
331
61
102
}
  0
BLOCK_RECORD
  5
68
330
1
100
AcDbSymbolTableRecord
100
AcDbBlockTableRecord
  2
block 8
340
0
102
{BLKREFS
331
69
102
}
  0
BLOCK_RECORD
  5
6D
330
1
100
AcDbSymbolTableRecord
100
AcDbBlockTableRecord
  2
block 9
340
0
102
{BLKREFS
331
6E
102
}
  0
BLOCK_RECORD
  5
72
330
1
100
AcDbSymbolTableRecord
100
AcDbBlockTableRecord
  2
block 10
340
0
102
{BLKREFS
331
73
102
}
  0
BLOCK_RECORD
  5
77
330
1
100
AcDbSymbolTableRecord
100
AcDbBlockTableRecord
  2
block 11
340
0
102
{BLKREFS
331
78
102
}
  0
BLOCK_RECORD
  5
7F
330
1
100
AcDbSymbolTableRecord
100
AcDbBlockTableRecord
  2
block 12
340
0
102
{BLKREFS
331
80
102
}
  0
BLOCK_RECORD
  5
85
330
1
100
AcDbSymbolTableRecord
100
AcDbBlockTableRecord
  2
block 13
340
0
102
{BLKREFS
331
86
102
}
  0
BLOCK_RECORD
  5
89
330
1
100
AcDbSymbolTableRecord
100
AcDbBlockTableRecord
  2
block 14
340
0
102
{BLKREFS
331
8A
102
}
  0
BLOCK_RECORD
  5
91
330
1
100
AcDbSymbolTableRecord
100
AcDbBlockTableRecord
  2
block 15
340
0
102
{BLKREFS
331
92
102
}
  0
BLOCK_RECORD
  5
99
330
1
100
AcDbSymbolTableRecord
100
AcDbBlockTableRecord
  2
block 16
340
0
102
{BLKREFS
331
9A
102
}
  0
BLOCK_RECORD
  5
A1
330
1
100
AcDbSymbolTableRecord
100
AcDbBlockTableRecord
  2
block 17
340
0
102
{BLKREFS
331
A2
102
}
  0
BLOCK_RECORD
  5
A9
330
1
100
AcDbSymbolTableRecord
100
AcDbBlockTableRecord
  2
block 18
340
0
102
{BLKREFS
331
AA
102
}
  0
BLOCK_RECORD
  5
AE
330
1
100
AcDbSymbolTableRecord
100
AcDbBlockTableRecord
  2
block 19
340
0
102
{BLKREFS
331
AF
102
}
  0
BLOCK_RECORD
  5
B3
330
1
100
AcDbSymbolTableRecord
100
AcDbBlockTableRecord
  2
block 20
340
0
102
{BLKREFS
331
B4
102
}
  0
BLOCK_RECORD
  5
B8
330
1
100
AcDbSymbolTableRecord
100
AcDbBlockTableRecord
  2
block 21
340
0
102
{BLKREFS
331
B9
102
}
  0
BLOCK_RECORD
  5
C0
330
1
100
AcDbSymbolTableRecord
100
AcDbBlockTableRecord
  2
block 22
340
0
102
{BLKREFS
331
C1
102
}
  0
BLOCK_RECORD
  5
C8
330
1
100
AcDbSymbolTableRecord
100
AcDbBlockTableRecord
  2
block 23
340
0
102
{BLKREFS
331
C9
102
}
  0
BLOCK_RECORD
  5
CE
330
1
100
AcDbSymbolTableRecord
100
AcDbBlockTableRecord
  2
block 24
340
0
102
{BLKREFS
331
CF
102
}
  0
BLOCK_RECORD
  5
D2
330
1
100
AcDbSymbolTableRecord
100
AcDbBlockTableRecord
  2
block 25
340
0
102
{BLKREFS
331
D3
102
}
  0
BLOCK_RECORD
  5
DA
330
1
100
AcDbSymbolTableRecord
100
AcDbBlockTableRecord
  2
block 26
340
0
102
{BLKREFS
331
DB
102
}
  0
BLOCK_RECORD
  5
E2
330
1
100
AcDbSymbolTableRecord
100
AcDbBlockTableRecord
  2
block 27
340
0
102
{BLKREFS
331
E3
102
}
  0
BLOCK_RECORD
  5
EA
330
1
100
AcDbSymbolTableRecord
100
AcDbBlockTableRecord
  2
block 28
340
0
102
{BLKREFS
331
EB
102
}
  0
BLOCK_RECORD
  5
F2
330
1
100
AcDbSymbolTableRecord
100
AcDbBlockTableRecord
  2
block 29
340
0
102
{BLKREFS
331
F3
102
}
  0
BLOCK_RECORD
  5
FA
330
1
100
AcDbSymbolTableRecord
100
AcDbBlockTableRecord
  2
block 30
340
0
102
{BLKREFS
331
FB
102
}
  0
BLOCK_RECORD
  5
FF
330
1
100
AcDbSymbolTableRecord
100
AcDbBlockTableRecord
  2
block 31
340
0
102
{BLKREFS
331
100
102
}
  0
BLOCK_RECORD
  5
104
330
1
100
AcDbSymbolTableRecord
100
AcDbBlockTableRecord
  2
block 32
340
0
102
{BLKREFS
331
105
102
}
  0
BLOCK_RECORD
  5
109
330
1
100
AcDbSymbolTableRecord
100
AcDbBlockTableRecord
  2
block 33
340
0
102
{BLKREFS
331
10A
102
}
  0
BLOCK_RECORD
  5
111
330
1
100
AcDbSymbolTableRecord
100
AcDbBlockTableRecord
  2
block 34
340
0
102
{BLKREFS
331
112
102
}
  0
BLOCK_RECORD
  5
117
330
1
100
AcDbSymbolTableRecord
100
AcDbBlockTableRecord
  2
block 35
340
0
102
{BLKREFS
331
118
102
}
  0
BLOCK_RECORD
  5
11B
330
1
100
AcDbSymbolTableRecord
100
AcDbBlockTableRecord
  2
block 36
340
0
102
{BLKREFS
331
11C
102
}
  0
BLOCK_RECORD
  5
123
330
1
100
AcDbSymbolTableRecord
100
AcDbBlockTableRecord
  2
block 37
340
0
102
{BLKREFS
331
124
102
}
  0
BLOCK_RECORD
  5
12B
330
1
100
AcDbSymbolTableRecord
100
AcDbBlockTableRecord
  2
block 38
340
0
102
{BLKREFS
331
12C
102
}
  0
BLOCK_RECORD
  5
133
330
1
100
AcDbSymbolTableRecord
100
AcDbBlockTableRecord
  2
block 39
340
0
102
{BLKREFS
331
134
102
}
  0
BLOCK_RECORD
  5
13B
330
1
100
AcDbSymbolTableRecord
100
AcDbBlockTableRecord
  2
block 40
340
0
102
{BLKREFS
331
13C
102
}
  0
BLOCK_RECORD
  5
140
330
1
100
AcDbSymbolTableRecord
100
AcDbBlockTableRecord
  2
block 41
340
0
102
{BLKREFS
331
141
102
}
  0
BLOCK_RECORD
  5
145
330
1
100
AcDbSymbolTableRecord
100
AcDbBlockTableRecord
  2
block 42
340
0
102
{BLKREFS
331
146
102
}
  0
BLOCK_RECORD
  5
14A
330
1
100
AcDbSymbolTableRecord
100
AcDbBlockTableRecord
  2
block 43
340
0
102
{BLKREFS
331
14B
102
}
  0
BLOCK_RECORD
  5
152
330
1
100
AcDbSymbolTableRecord
100
AcDbBlockTableRecord
  2
block 44
340
0
102
{BLKREFS
331
153
102
}
  0
BLOCK_RECORD
  5
15A
330
1
100
AcDbSymbolTableRecord
100
AcDbBlockTableRecord
  2
block 45
340
0
102
{BLKREFS
331
15B
102
}
  0
ENDTAB
  0
ENDSEC
  0
SECTION
  2
BLOCKS
  0
BLOCK
  5
20
330
1F
100
AcDbEntity
  8
0
100
AcDbBlockBegin
  2
*Model_Space
 70
     0
 71
     0
 10
0.0
 20
0.0
 30
0.0
  3
*Model_Space
  1

  0
ENDBLK
  5
21
330
1F
100
AcDbEntity
  8
0
100
AcDbBlockEnd
  0
BLOCK
  5
1C
330
1B
100
AcDbEntity
 67
     1
  8
0
100
AcDbBlockBegin
  2
*Paper_Space
 70
     0
 71
     0
 10
0.0
 20
0.0
 30
0.0
  3
*Paper_Space
  1

  0
ENDBLK
  5
1D
330
1B
100
AcDbEntity
 67
     1
  8
0
100
AcDbBlockEnd
  0
BLOCK
  5
24
330
23
100
AcDbEntity
  8
0
100
AcDbBlockBegin
  2
*Paper_Space0
 70
     0
 71
     0
 10
0.0
 20
0.0
 30
0.0
  3
*Paper_Space0
  1

  0
ENDBLK
  5
25
330
23
100
AcDbEntity
  8
0
100
AcDbBlockEnd
  0
BLOCK
  5
3E
330
3C
100
AcDbEntity
  8
0
100
AcDbBlockBegin
  2
block 2
 70
     0
 71
     0
 10
0.0
 20
0.0
 30
0.0
  3
block 2
  1

  0
INSERT
  5
41
330
3C
100
AcDbEntity
  8
Layer 1
100
AcDbBlockReference
  2
block 3
 10
0.0
 20
0.0
 30
0.0
  0
INSERT
  5
49
330
3C
100
AcDbEntity
  8
Layer 1
100
AcDbBlockReference
  2
block 4
 10
0.0
 20
0.0
 30
0.0
  0
INSERT
  5
51
330
3C
100
AcDbEntity
  8
Layer 1
100
AcDbBlockReference
  2
block 5
 10
0.0
 20
0.0
 30
0.0
  0
INSERT
  5
59
330
3C
100
AcDbEntity
  8
Layer 1
100
AcDbBlockReference
  2
block 6
 10
0.0
 20
0.0
 30
0.0
  0
INSERT
  5
61
330
3C
100
AcDbEntity
  8
Layer 1
100
AcDbBlockReference
  2
block 7
 10
0.0
 20
0.0
 30
0.0
  0
INSERT
  5
69
330
3C
100
AcDbEntity
  8
Layer 1
100
AcDbBlockReference
  2
block 8
 10
0.0
 20
0.0
 30
0.0
  0
INSERT
  5
6E
330
3C
100
AcDbEntity
  8
Layer 1
100
AcDbBlockReference
  2
block 9
 10
0.0
 20
0.0
 30
0.0
  0
INSERT
  5
73
330
3C
100
AcDbEntity
  8
Layer 1
100
AcDbBlockReference
  2
block 10
 10
0.0
 20
0.0
 30
0.0
  0
INSERT
  5
78
330
3C
100
AcDbEntity
  8
Layer 1
100
AcDbBlockReference
  2
block 11
 10
0.0
 20
0.0
 30
0.0
  0
INSERT
  5
80
330
3C
100
AcDbEntity
  8
Layer 1
100
AcDbBlockReference
  2
block 12
 10
0.0
 20
0.0
 30
0.0
  0
ENDBLK
  5
3F
330
3C
100
AcDbEntity
  8
0
100
AcDbBlockEnd
  0
BLOCK
  5
42
330
40
100
AcDbEntity
  8
0
100
AcDbBlockBegin
  2
block 3
 70
     0
 71
     0
 10
0.0
 20
0.0
 30
0.0
  3
block 3
  1

  0
POLYLINE
  5
44
330
40
100
AcDbEntity
  8
Layer 1
370
     0
100
AcDb2dPolyline
 66
     1
 10
0.0
 20
0.0
 30
0.0
  0
VERTEX
  5
45
330
44
100
AcDbEntity
  8
Layer 1
370
     0
100
AcDbVertex
100
AcDb2dVertex
 10
1.043178982204861
 20
-0.05859375
 30
0.0
  0
VERTEX
  5
46
330
44
100
AcDbEntity
  8
Layer 1
370
     0
100
AcDbVertex
100
AcDb2dVertex
 10
1.043178982204861
 20
-1.05859375
 30
0.0
  0
SEQEND
  5
47
330
44
100
AcDbEntity
  8
Layer 1
370
     0
  0
ENDBLK
  5
43
330
40
100
AcDbEntity
  8
0
100
AcDbBlockEnd
  0
BLOCK
  5
4A
330
48
100
AcDbEntity
  8
0
100
AcDbBlockBegin
  2
block 4
 70
     0
 71
     0
 10
0.0
 20
0.0
 30
0.0
  3
block 4
  1

  0
POLYLINE
  5
4C
330
48
100
AcDbEntity
  8
Layer 1
370
     0
100
AcDb2dPolyline
 66
     1
 10
0.0
 20
0.0
 30
0.0
  0
VERTEX
  5
4D
330
4C
100
AcDbEntity
  8
Layer 1
370
     0
100
AcDbVertex
100
AcDb2dVertex
 10
0.0431789822048611
 20
-0.5639444986979166
 30
0.0
  0
VERTEX
  5
4E
330
4C
100
AcDbEntity
  8
Layer 1
370
     0
100
AcDbVertex
100
AcDb2dVertex
 10
0.0431789822048611
 20
-0.05859375
 30
0.0
  0
SEQEND
  5
4F
330
4C
100
AcDbEntity
  8
Layer 1
370
     0
  0
ENDBLK
  5
4B
330
48
100
AcDbEntity
  8
0
100
AcDbBlockEnd
  0
BLOCK
  5
52
330
50
100
AcDbEntity
  8
0
100
AcDbBlockBegin
  2
block 5
 70
     0
 71
     0
 10
0.0
 20
0.0
 30
0.0
  3
block 5
  1

  0
POLYLINE
  5
54
330
50
100
AcDbEntity
  8
Layer 1
370
     0
100
AcDb2dPolyline
 66
     1
 10
0.0
 20
0.0
 30
0.0
  0
VERTEX
  5
55
330
54
100
AcDbEntity
  8
Layer 1
370
     0
100
AcDbVertex
100
AcDb2dVertex
 10
0.0431789822048611
 20
-0.80859375
 30
0.0
  0
VERTEX
  5
56
330
54
100
AcDbEntity
  8
Layer 1
370
     0
100
AcDbVertex
100
AcDb2dVertex
 10
0.0431789822048611
 20
-0.55859375
 30
0.0
  0
SEQEND
  5
57
330
54
100
AcDbEntity
  8
Layer 1
370
     0
  0
ENDBLK
  5
53
330
50
100
AcDbEntity
  8
0
100
AcDbBlockEnd
  0
BLOCK
  5
5A
330
58
100
AcDbEntity
  8
0
100
AcDbBlockBegin
  2
block 6
 70
     0
 71
     0
 10
0.0
 20
0.0
 30
0.0
  3
block 6
  1

  0
POLYLINE
  5
5C
330
58
100
AcDbEntity
  8
Layer 1
370
     0
100
AcDb2dPolyline
 66
     1
 10
0.0
 20
0.0
 30
0.0
  0
VERTEX
  5
5D
330
5C
100
AcDbEntity
  8
Layer 1
370
     0
100
AcDbVertex
100
AcDb2dVertex
 10
0.0431789822048611
 20
-0.05859375
 30
0.0
  0
VERTEX
  5
5E
330
5C
100
AcDbEntity
  8
Layer 1
370
     0
100
AcDbVertex
100
AcDb2dVertex
 10
1.043178982204861
 20
-0.05859375
 30
0.0
  0
SEQEND
  5
5F
330
5C
100
AcDbEntity
  8
Layer 1
370
     0
  0
ENDBLK
  5
5B
330
58
100
AcDbEntity
  8
0
100
AcDbBlockEnd
  0
BLOCK
  5
62
330
60
100
AcDbEntity
  8
0
100
AcDbBlockBegin
  2
block 7
 70
     0
 71
     0
 10
0.0
 20
0.0
 30
0.0
  3
block 7
  1

  0
POLYLINE
  5
64
330
60
100
AcDbEntity
  8
Layer 1
370
     0
100
AcDb2dPolyline
 66
     1
 10
0.0
 20
0.0
 30
0.0
  0
VERTEX
  5
65
330
64
100
AcDbEntity
  8
Layer 1
370
     0
100
AcDbVertex
100
AcDb2dVertex
 10
1.043178982204861
 20
-1.05859375
 30
0.0
  0
VERTEX
  5
66
330
64
100
AcDbEntity
  8
Layer 1
370
     0
100
AcDbVertex
100
AcDb2dVertex
 10
0.543178982204861
 20
-1.05859375
 30
0.0
  0
SEQEND
  5
67
330
64
100
AcDbEntity
  8
Layer 1
370
     0
  0
ENDBLK
  5
63
330
60
100
AcDbEntity
  8
0
100
AcDbBlockEnd
  0
BLOCK
  5
6A
330
68
100
AcDbEntity
  8
0
100
AcDbBlockBegin
  2
block 8
 70
     0
 71
     0
 10
0.0
 20
0.0
 30
0.0
  3
block 8
  1

  0
SPLINE
  5
6C
330
68
100
AcDbEntity
  8
Layer 1
370
     0
100
AcDbSpline
210
0.0
220
0.0
230
1.0
 70
    11
 71
     3
 72
    20
 73
    16
 74
     0
 42
0.0000000001
 43
0.0000000001
 40
0.0
 40
0.0
 40
0.0
 40
0.0
 40
1.0
 40
1.0
 40
1.0
 40
2.0
 40
2.0
 40
2.0
 40
3.0
 40
3.0
 40
3.0
 40
4.0
 40
4.0
 40
4.0
 40
5.0
 40
5.0
 40
5.0
 40
5.0
 10
0.949428982204861
 20
-0.18359375
 30
0.0
 10
0.949428982204861
 20
-0.1663343641493056
 30
0.0
 10
0.9354451497395833
 20
-0.15234375
 30
0.0
 10
0.918178982204861
 20
-0.15234375
 30
0.0
 10
0.9009128146701388
 20
-0.15234375
 30
0.0
 10
0.886928982204861
 20
-0.1663343641493056
 30
0.0
 10
0.886928982204861
 20
-0.18359375
 30
0.0
 10
0.886928982204861
 20
-0.2008531358506944
 30
0.0
 10
0.9009128146701388
 20
-0.21484375
 30
0.0
 10
0.918178982204861
 20
-0.21484375
 30
0.0
 10
0.9354451497395833
 20
-0.21484375
 30
0.0
 10
0.949428982204861
 20
-0.2008531358506944
 30
0.0
 10
0.949428982204861
 20
-0.18359375
 30
0.0
 10
0.949428982204861
 20
-0.18359375
 30
0.0
 10
0.949428982204861
 20
-0.18359375
 30
0.0
 10
0.949428982204861
 20
-0.18359375
 30
0.0
  0
ENDBLK
  5
6B
330
68
100
AcDbEntity
  8
0
100
AcDbBlockEnd
  0
BLOCK
  5
6F
330
6D
100
AcDbEntity
  8
0
100
AcDbBlockBegin
  2
block 9
 70
     0
 71
     0
 10
0.0
 20
0.0
 30
0.0
  3
block 9
  1

  0
SPLINE
  5
71
330
6D
100
AcDbEntity
  8
Layer 1
370
     0
100
AcDbSpline
210
0.0
220
0.0
230
1.0
 70
     8
 71
     3
 72
     8
 73
     4
 74
     0
 42
0.0000000001
 43
0.0000000001
 40
0.0
 40
0.0
 40
0.0
 40
0.0
 40
1.0
 40
1.0
 40
1.0
 40
1.0
 10
0.0431789822048611
 20
-0.80859375
 30
0.0
 10
0.0431789822048611
 20
-0.9466620551215277
 30
0.0
 10
0.1551106770833333
 20
-1.05859375
 30
0.0
 10
0.2931789822048611
 20
-1.05859375
 30
0.0
  0
ENDBLK
  5
70
330
6D
100
AcDbEntity
  8
0
100
AcDbBlockEnd
  0
BLOCK
  5
74
330
72
100
AcDbEntity
  8
0
100
AcDbBlockBegin
  2
block 10
 70
     0
 71
     0
 10
0.0
 20
0.0
 30
0.0
  3
block 10
  1

  0
SPLINE
  5
76
330
72
100
AcDbEntity
  8
Layer 1
370
     0
100
AcDbSpline
210
0.0
220
0.0
230
1.0
 70
    11
 71
     3
 72
    20
 73
    16
 74
     0
 42
0.0000000001
 43
0.0000000001
 40
0.0
 40
0.0
 40
0.0
 40
0.0
 40
1.0
 40
1.0
 40
1.0
 40
2.0
 40
2.0
 40
2.0
 40
3.0
 40
3.0
 40
3.0
 40
4.0
 40
4.0
 40
4.0
 40
5.0
 40
5.0
 40
5.0
 40
5.0
 10
0.4181789822048611
 20
-0.80859375
 30
0.0
 10
0.4181789822048611
 20
-0.7395562065972222
 30
0.0
 10
0.3622029622395833
 20
-0.68359375
 30
0.0
 10
0.2931789822048611
 20
-0.68359375
 30
0.0
 10
0.2241482204861111
 20
-0.68359375
 30
0.0
 10
0.1681789822048611
 20
-0.7395562065972222
 30
0.0
 10
0.1681789822048611
 20
-0.80859375
 30
0.0
 10
0.1681789822048611
 20
-0.8776312934027777
 30
0.0
 10
0.2241482204861111
 20
-0.93359375
 30
0.0
 10
0.2931789822048611
 20
-0.93359375
 30
0.0
 10
0.3622029622395833
 20
-0.93359375
 30
0.0
 10
0.4181789822048611
 20
-0.8776312934027777
 30
0.0
 10
0.4181789822048611
 20
-0.80859375
 30
0.0
 10
0.4181789822048611
 20
-0.80859375
 30
0.0
 10
0.4181789822048611
 20
-0.80859375
 30
0.0
 10
0.4181789822048611
 20
-0.80859375
 30
0.0
  0
ENDBLK
  5
75
330
72
100
AcDbEntity
  8
0
100
AcDbBlockEnd
  0
BLOCK
  5
79
330
77
100
AcDbEntity
  8
0
100
AcDbBlockBegin
  2
block 11
 70
     0
 71
     0
 10
0.0
 20
0.0
 30
0.0
  3
block 11
  1

  0
POLYLINE
  5
7B
330
77
100
AcDbEntity
  8
Layer 1
370
     0
100
AcDb2dPolyline
 66
     1
 10
0.0
 20
0.0
 30
0.0
  0
VERTEX
  5
7C
330
7B
100
AcDbEntity
  8
Layer 1
370
     0
100
AcDbVertex
100
AcDb2dVertex
 10
0.543178982204861
 20
-1.05859375
 30
0.0
  0
VERTEX
  5
7D
330
7B
100
AcDbEntity
  8
Layer 1
370
     0
100
AcDbVertex
100
AcDb2dVertex
 10
0.2931789822048611
 20
-1.05859375
 30
0.0
  0
SEQEND
  5
7E
330
7B
100
AcDbEntity
  8
Layer 1
370
     0
  0
ENDBLK
  5
7A
330
77
100
AcDbEntity
  8
0
100
AcDbBlockEnd
  0
BLOCK
  5
81
330
7F
100
AcDbEntity
  8
0
100
AcDbBlockBegin
  2
block 12
 70
     0
 71
     0
 10
0.0
 20
0.0
 30
0.0
  3
block 12
  1

  0
SPLINE
  5
83
330
7F
100
AcDbEntity
  8
Layer 1
370
     0
100
AcDbSpline
210
0.0
220
0.0
230
1.0
 70
    11
 71
     3
 72
    32
 73
    28
 74
     0
 42
0.0000000001
 43
0.0000000001
 40
0.0
 40
0.0
 40
0.0
 40
0.0
 40
1.0
 40
1.0
 40
1.0
 40
2.0
 40
2.0
 40
2.0
 40
3.0
 40
3.0
 40
3.0
 40
4.0
 40
4.0
 40
4.0
 40
5.0
 40
5.0
 40
5.0
 40
6.0
 40
6.0
 40
6.0
 40
7.0
 40
7.0
 40
7.0
 40
8.0
 40
8.0
 40
8.0
 40
9.0
 40
9.0
 40
9.0
 40
9.0
 10
0.543178982204861
 20
-1.05859375
 30
0.0
 10
0.543178982204861
 20
-1.05859375
 30
0.0
 10
0.543178982204861
 20
-0.80859375
 30
0.0
 10
0.543178982204861
 20
-0.80859375
 30
0.0
 10
0.543178982204861
 20
-0.6705254448784722
 30
0.0
 10
0.4312405056423611
 20
-0.55859375
 30
0.0
 10
0.2931789822048611
 20
-0.55859375
 30
0.0
 10
0.2931789822048611
 20
-0.55859375
 30
0.0
 10
0.0431789822048611
 20
-0.55859375
 30
0.0
 10
0.0431789822048611
 20
-0.55859375
 30
0.0
 10
0.0431789822048611
 20
-0.55859375
 30
0.0
 10
0.0431789822048611
 20
-0.18359375
 30
0.0
 10
0.0431789822048611
 20
-0.18359375
 30
0.0
 10
0.0431789822048611
 20
-0.18359375
 30
0.0
 10
0.4681871202256944
 20
-0.18359375
 30
0.0
 10
0.4681871202256944
 20
-0.18359375
 30
0.0
 10
0.6807590060763888
 20
-0.18359375
 30
0.0
 10
0.8589070638020833
 20
-0.3311631944444444
 30
0.0
 10
0.906005859375
 20
-0.5293375651041666
 30
0.0
 10
0.906005859375
 20
-0.5293375651041666
 30
0.0
 10
1.043178982204861
 20
-0.5293375651041666
 30
0.0
 10
1.043178982204861
 20
-0.5293375651041666
 30
0.0
 10
1.043178982204861
 20
-0.5293375651041666
 30
0.0
 10
1.043178982204861
 20
-1.05859375
 30
0.0
 10
1.043178982204861
 20
-1.05859375
 30
0.0
 10
1.043178982204861
 20
-1.05859375
 30
0.0
 10
0.543178982204861
 20
-1.05859375
 30
0.0
 10
0.543178982204861
 20
-1.05859375
 30
0.0
  0
HATCH
  5
84
330
7F
100
AcDbEntity
  8
Layer 1
 62
     7
420
 16777215
100
AcDbHatch
 10
0.0
 20
0.0
 30
0.0
210
0.0
220
0.0
230
1.0
  2
SOLID
 70
     1
 71
     0
 91
        1
 92
        1
 93
        1
 72
     4
 94
        3
 73
     0
 74
     1
 95
       32
 96
       28
 40
0.0
 40
0.0
 40
0.0
 40
0.0
 40
1.0
 40
1.0
 40
1.0
 40
2.0
 40
2.0
 40
2.0
 40
3.0
 40
3.0
 40
3.0
 40
4.0
 40
4.0
 40
4.0
 40
5.0
 40
5.0
 40
5.0
 40
6.0
 40
6.0
 40
6.0
 40
7.0
 40
7.0
 40
7.0
 40
8.0
 40
8.0
 40
8.0
 40
9.0
 40
9.0
 40
9.0
 40
9.0
 10
0.543178982204861
 20
-1.05859375
 10
0.543178982204861
 20
-1.05859375
 10
0.543178982204861
 20
-0.80859375
 10
0.543178982204861
 20
-0.80859375
 10
0.543178982204861
 20
-0.6705254448784722
 10
0.4312405056423611
 20
-0.55859375
 10
0.2931789822048611
 20
-0.55859375
 10
0.2931789822048611
 20
-0.55859375
 10
0.0431789822048611
 20
-0.55859375
 10
0.0431789822048611
 20
-0.55859375
 10
0.0431789822048611
 20
-0.55859375
 10
0.0431789822048611
 20
-0.18359375
 10
0.0431789822048611
 20
-0.18359375
 10
0.0431789822048611
 20
-0.18359375
 10
0.4681871202256944
 20
-0.18359375
 10
0.4681871202256944
 20
-0.18359375
 10
0.6807590060763888
 20
-0.18359375
 10
0.8589070638020833
 20
-0.3311631944444444
 10
0.906005859375
 20
-0.5293375651041666
 10
0.906005859375
 20
-0.5293375651041666
 10
1.043178982204861
 20
-0.5293375651041666
 10
1.043178982204861
 20
-0.5293375651041666
 10
1.043178982204861
 20
-0.5293375651041666
 10
1.043178982204861
 20
-1.05859375
 10
1.043178982204861
 20
-1.05859375
 10
1.043178982204861
 20
-1.05859375
 10
0.543178982204861
 20
-1.05859375
 10
0.543178982204861
 20
-1.05859375
 97
        0
 75
     2
 76
     1
 98
        0
  0
ENDBLK
  5
82
330
7F
100
AcDbEntity
  8
0
100
AcDbBlockEnd
  0
BLOCK
  5
87
330
85
100
AcDbEntity
  8
0
100
AcDbBlockBegin
  2
block 13
 70
     0
 71
     0
 10
0.0
 20
0.0
 30
0.0
  3
block 13
  1

  0
INSERT
  5
8A
330
85
100
AcDbEntity
  8
Layer 1
100
AcDbBlockReference
  2
block 14
 10
0.0
 20
0.0
 30
0.0
  0
INSERT
  5
92
330
85
100
AcDbEntity
  8
Layer 1
100
AcDbBlockReference
  2
block 15
 10
0.0
 20
0.0
 30
0.0
  0
INSERT
  5
9A
330
85
100
AcDbEntity
  8
Layer 1
100
AcDbBlockReference
  2
block 16
 10
0.0
 20
0.0
 30
0.0
  0
INSERT
  5
A2
330
85
100
AcDbEntity
  8
Layer 1
100
AcDbBlockReference
  2
block 17
 10
0.0
 20
0.0
 30
0.0
  0
INSERT
  5
AA
330
85
100
AcDbEntity
  8
Layer 1
100
AcDbBlockReference
  2
block 18
 10
0.0
 20
0.0
 30
0.0
  0
INSERT
  5
AF
330
85
100
AcDbEntity
  8
Layer 1
100
AcDbBlockReference
  2
block 19
 10
0.0
 20
0.0
 30
0.0
  0
INSERT
  5
B4
330
85
100
AcDbEntity
  8
Layer 1
100
AcDbBlockReference
  2
block 20
 10
0.0
 20
0.0
 30
0.0
  0
INSERT
  5
B9
330
85
100
AcDbEntity
  8
Layer 1
100
AcDbBlockReference
  2
block 21
 10
0.0
 20
0.0
 30
0.0
  0
INSERT
  5
C1
330
85
100
AcDbEntity
  8
Layer 1
100
AcDbBlockReference
  2
block 22
 10
0.0
 20
0.0
 30
0.0
  0
INSERT
  5
C9
330
85
100
AcDbEntity
  8
Layer 1
100
AcDbBlockReference
  2
block 23
 10
0.0
 20
0.0
 30
0.0
  0
ENDBLK
  5
88
330
85
100
AcDbEntity
  8
0
100
AcDbBlockEnd
  0
BLOCK
  5
8B
330
89
100
AcDbEntity
  8
0
100
AcDbBlockBegin
  2
block 14
 70
     0
 71
     0
 10
0.0
 20
0.0
 30
0.0
  3
block 14
  1

  0
POLYLINE
  5
8D
330
89
100
AcDbEntity
  8
Layer 1
370
     0
100
AcDb2dPolyline
 66
     1
 10
0.0
 20
0.0
 30
0.0
  0
VERTEX
  5
8E
330
8D
100
AcDbEntity
  8
Layer 1
370
     0
100
AcDbVertex
100
AcDb2dVertex
 10
2.646626790364583
 20
-1.05859375
 30
0.0
  0
VERTEX
  5
8F
330
8D
100
AcDbEntity
  8
Layer 1
370
     0
100
AcDbVertex
100
AcDb2dVertex
 10
3.1519775390625
 20
-1.05859375
 30
0.0
  0
SEQEND
  5
90
330
8D
100
AcDbEntity
  8
Layer 1
370
     0
  0
ENDBLK
  5
8C
330
89
100
AcDbEntity
  8
0
100
AcDbBlockEnd
  0
BLOCK
  5
93
330
91
100
AcDbEntity
  8
0
100
AcDbBlockBegin
  2
block 15
 70
     0
 71
     0
 10
0.0
 20
0.0
 30
0.0
  3
block 15
  1

  0
POLYLINE
  5
95
330
91
100
AcDbEntity
  8
Layer 1
370
     0
100
AcDb2dPolyline
 66
     1
 10
0.0
 20
0.0
 30
0.0
  0
VERTEX
  5
96
330
95
100
AcDbEntity
  8
Layer 1
370
     0
100
AcDbVertex
100
AcDb2dVertex
 10
3.1519775390625
 20
-1.05859375
 30
0.0
  0
VERTEX
  5
97
330
95
100
AcDbEntity
  8
Layer 1
370
     0
100
AcDbVertex
100
AcDb2dVertex
 10
3.1519775390625
 20
-0.05859375
 30
0.0
  0
SEQEND
  5
98
330
95
100
AcDbEntity
  8
Layer 1
370
     0
  0
ENDBLK
  5
94
330
91
100
AcDbEntity
  8
0
100
AcDbBlockEnd
  0
BLOCK
  5
9B
330
99
100
AcDbEntity
  8
0
100
AcDbBlockBegin
  2
block 16
 70
     0
 71
     0
 10
0.0
 20
0.0
 30
0.0
  3
block 16
  1

  0
POLYLINE
  5
9D
330
99
100
AcDbEntity
  8
Layer 1
370
     0
100
AcDb2dPolyline
 66
     1
 10
0.0
 20
0.0
 30
0.0
  0
VERTEX
  5
9E
330
9D
100
AcDbEntity
  8
Layer 1
370
     0
100
AcDbVertex
100
AcDb2dVertex
 10
3.1519775390625
 20
-0.05859375
 30
0.0
  0
VERTEX
  5
9F
330
9D
100
AcDbEntity
  8
Layer 1
370
     0
100
AcDbVertex
100
AcDb2dVertex
 10
2.1519775390625
 20
-0.05859375
 30
0.0
  0
SEQEND
  5
A0
330
9D
100
AcDbEntity
  8
Layer 1
370
     0
  0
ENDBLK
  5
9C
330
99
100
AcDbEntity
  8
0
100
AcDbBlockEnd
  0
BLOCK
  5
A3
330
A1
100
AcDbEntity
  8
0
100
AcDbBlockBegin
  2
block 17
 70
     0
 71
     0
 10
0.0
 20
0.0
 30
0.0
  3
block 17
  1

  0
POLYLINE
  5
A5
330
A1
100
AcDbEntity
  8
Layer 1
370
     0
100
AcDb2dPolyline
 66
     1
 10
0.0
 20
0.0
 30
0.0
  0
VERTEX
  5
A6
330
A5
100
AcDbEntity
  8
Layer 1
370
     0
100
AcDbVertex
100
AcDb2dVertex
 10
2.1519775390625
 20
-0.05859375
 30
0.0
  0
VERTEX
  5
A7
330
A5
100
AcDbEntity
  8
Layer 1
370
     0
100
AcDbVertex
100
AcDb2dVertex
 10
2.1519775390625
 20
-0.55859375
 30
0.0
  0
SEQEND
  5
A8
330
A5
100
AcDbEntity
  8
Layer 1
370
     0
  0
ENDBLK
  5
A4
330
A1
100
AcDbEntity
  8
0
100
AcDbBlockEnd
  0
BLOCK
  5
AB
330
A9
100
AcDbEntity
  8
0
100
AcDbBlockBegin
  2
block 18
 70
     0
 71
     0
 10
0.0
 20
0.0
 30
0.0
  3
block 18
  1

  0
SPLINE
  5
AD
330
A9
100
AcDbEntity
  8
Layer 1
370
     0
100
AcDbSpline
210
0.0
220
0.0
230
1.0
 70
    11
 71
     3
 72
    20
 73
    16
 74
     0
 42
0.0000000001
 43
0.0000000001
 40
0.0
 40
0.0
 40
0.0
 40
0.0
 40
1.0
 40
1.0
 40
1.0
 40
2.0
 40
2.0
 40
2.0
 40
3.0
 40
3.0
 40
3.0
 40
4.0
 40
4.0
 40
4.0
 40
5.0
 40
5.0
 40
5.0
 40
5.0
 10
3.0269775390625
 20
-0.15234375
 30
0.0
 10
3.044236924913194
 20
-0.15234375
 30
0.0
 10
3.0582275390625
 20
-0.1663275824652778
 30
0.0
 10
3.0582275390625
 20
-0.18359375
 30
0.0
 10
3.0582275390625
 20
-0.2008599175347222
 30
0.0
 10
3.044236924913194
 20
-0.21484375
 30
0.0
 10
3.0269775390625
 20
-0.21484375
 30
0.0
 10
3.009718153211805
 20
-0.21484375
 30
0.0
 10
2.9957275390625
 20
-0.2008599175347222
 30
0.0
 10
2.9957275390625
 20
-0.18359375
 30
0.0
 10
2.9957275390625
 20
-0.1663275824652778
 30
0.0
 10
3.009718153211805
 20
-0.15234375
 30
0.0
 10
3.0269775390625
 20
-0.15234375
 30
0.0
 10
3.0269775390625
 20
-0.15234375
 30
0.0
 10
3.0269775390625
 20
-0.15234375
 30
0.0
 10
3.0269775390625
 20
-0.15234375
 30
0.0
  0
ENDBLK
  5
AC
330
A9
100
AcDbEntity
  8
0
100
AcDbBlockEnd
  0
BLOCK
  5
B0
330
AE
100
AcDbEntity
  8
0
100
AcDbBlockBegin
  2
block 19
 70
     0
 71
     0
 10
0.0
 20
0.0
 30
0.0
  3
block 19
  1

  0
SPLINE
  5
B2
330
AE
100
AcDbEntity
  8
Layer 1
370
     0
100
AcDbSpline
210
0.0
220
0.0
230
1.0
 70
     8
 71
     3
 72
     8
 73
     4
 74
     0
 42
0.0000000001
 43
0.0000000001
 40
0.0
 40
0.0
 40
0.0
 40
0.0
 40
1.0
 40
1.0
 40
1.0
 40
1.0
 10
2.4019775390625
 20
-1.05859375
 30
0.0
 10
2.263909233940972
 20
-1.05859375
 30
0.0
 10
2.1519775390625
 20
-0.9466620551215277
 30
0.0
 10
2.1519775390625
 20
-0.80859375
 30
0.0
  0
ENDBLK
  5
B1
330
AE
100
AcDbEntity
  8
0
100
AcDbBlockEnd
  0
BLOCK
  5
B5
330
B3
100
AcDbEntity
  8
0
100
AcDbBlockBegin
  2
block 20
 70
     0
 71
     0
 10
0.0
 20
0.0
 30
0.0
  3
block 20
  1

  0
SPLINE
  5
B7
330
B3
100
AcDbEntity
  8
Layer 1
370
     0
100
AcDbSpline
210
0.0
220
0.0
230
1.0
 70
    11
 71
     3
 72
    20
 73
    16
 74
     0
 42
0.0000000001
 43
0.0000000001
 40
0.0
 40
0.0
 40
0.0
 40
0.0
 40
1.0
 40
1.0
 40
1.0
 40
2.0
 40
2.0
 40
2.0
 40
3.0
 40
3.0
 40
3.0
 40
4.0
 40
4.0
 40
4.0
 40
5.0
 40
5.0
 40
5.0
 40
5.0
 10
2.4019775390625
 20
-0.68359375
 30
0.0
 10
2.471015082465278
 20
-0.68359375
 30
0.0
 10
2.5269775390625
 20
-0.7395697699652778
 30
0.0
 10
2.5269775390625
 20
-0.80859375
 30
0.0
 10
2.5269775390625
 20
-0.87762451171875
 30
0.0
 10
2.471015082465278
 20
-0.93359375
 30
0.0
 10
2.4019775390625
 20
-0.93359375
 30
0.0
 10
2.332939995659722
 20
-0.93359375
 30
0.0
 10
2.2769775390625
 20
-0.87762451171875
 30
0.0
 10
2.2769775390625
 20
-0.80859375
 30
0.0
 10
2.2769775390625
 20
-0.7395697699652778
 30
0.0
 10
2.332939995659722
 20
-0.68359375
 30
0.0
 10
2.4019775390625
 20
-0.68359375
 30
0.0
 10
2.4019775390625
 20
-0.68359375
 30
0.0
 10
2.4019775390625
 20
-0.68359375
 30
0.0
 10
2.4019775390625
 20
-0.68359375
 30
0.0
  0
ENDBLK
  5
B6
330
B3
100
AcDbEntity
  8
0
100
AcDbBlockEnd
  0
BLOCK
  5
BA
330
B8
100
AcDbEntity
  8
0
100
AcDbBlockBegin
  2
block 21
 70
     0
 71
     0
 10
0.0
 20
0.0
 30
0.0
  3
block 21
  1

  0
POLYLINE
  5
BC
330
B8
100
AcDbEntity
  8
Layer 1
370
     0
100
AcDb2dPolyline
 66
     1
 10
0.0
 20
0.0
 30
0.0
  0
VERTEX
  5
BD
330
BC
100
AcDbEntity
  8
Layer 1
370
     0
100
AcDbVertex
100
AcDb2dVertex
 10
2.1519775390625
 20
-0.55859375
 30
0.0
  0
VERTEX
  5
BE
330
BC
100
AcDbEntity
  8
Layer 1
370
     0
100
AcDbVertex
100
AcDb2dVertex
 10
2.1519775390625
 20
-0.80859375
 30
0.0
  0
SEQEND
  5
BF
330
BC
100
AcDbEntity
  8
Layer 1
370
     0
  0
ENDBLK
  5
BB
330
B8
100
AcDbEntity
  8
0
100
AcDbBlockEnd
  0
BLOCK
  5
C2
330
C0
100
AcDbEntity
  8
0
100
AcDbBlockBegin
  2
block 22
 70
     0
 71
     0
 10
0.0
 20
0.0
 30
0.0
  3
block 22
  1

  0
POLYLINE
  5
C4
330
C0
100
AcDbEntity
  8
Layer 1
370
     0
100
AcDb2dPolyline
 66
     1
 10
0.0
 20
0.0
 30
0.0
  0
VERTEX
  5
C5
330
C4
100
AcDbEntity
  8
Layer 1
370
     0
100
AcDbVertex
100
AcDb2dVertex
 10
2.4019775390625
 20
-1.05859375
 30
0.0
  0
VERTEX
  5
C6
330
C4
100
AcDbEntity
  8
Layer 1
370
     0
100
AcDbVertex
100
AcDb2dVertex
 10
2.6519775390625
 20
-1.05859375
 30
0.0
  0
SEQEND
  5
C7
330
C4
100
AcDbEntity
  8
Layer 1
370
     0
  0
ENDBLK
  5
C3
330
C0
100
AcDbEntity
  8
0
100
AcDbBlockEnd
  0
BLOCK
  5
CA
330
C8
100
AcDbEntity
  8
0
100
AcDbBlockBegin
  2
block 23
 70
     0
 71
     0
 10
0.0
 20
0.0
 30
0.0
  3
block 23
  1

  0
SPLINE
  5
CC
330
C8
100
AcDbEntity
  8
Layer 1
370
     0
100
AcDbSpline
210
0.0
220
0.0
230
1.0
 70
    11
 71
     3
 72
    32
 73
    28
 74
     0
 42
0.0000000001
 43
0.0000000001
 40
0.0
 40
0.0
 40
0.0
 40
0.0
 40
1.0
 40
1.0
 40
1.0
 40
2.0
 40
2.0
 40
2.0
 40
3.0
 40
3.0
 40
3.0
 40
4.0
 40
4.0
 40
4.0
 40
5.0
 40
5.0
 40
5.0
 40
6.0
 40
6.0
 40
6.0
 40
7.0
 40
7.0
 40
7.0
 40
8.0
 40
8.0
 40
8.0
 40
9.0
 40
9.0
 40
9.0
 40
9.0
 10
2.1519775390625
 20
-0.55859375
 30
0.0
 10
2.1519775390625
 20
-0.55859375
 30
0.0
 10
2.4019775390625
 20
-0.55859375
 30
0.0
 10
2.4019775390625
 20
-0.55859375
 30
0.0
 10
2.540045844184028
 20
-0.55859375
 30
0.0
 10
2.6519775390625
 20
-0.6705322265625
 30
0.0
 10
2.6519775390625
 20
-0.80859375
 30
0.0
 10
2.6519775390625
 20
-0.80859375
 30
0.0
 10
2.6519775390625
 20
-1.05859375
 30
0.0
 10
2.6519775390625
 20
-1.05859375
 30
0.0
 10
2.6519775390625
 20
-1.05859375
 30
0.0
 10
3.0269775390625
 20
-1.05859375
 30
0.0
 10
3.0269775390625
 20
-1.05859375
 30
0.0
 10
3.0269775390625
 20
-1.05859375
 30
0.0
 10
3.0269775390625
 20
-0.6335856119791666
 30
0.0
 10
3.0269775390625
 20
-0.6335856119791666
 30
0.0
 10
3.0269775390625
 20
-0.4210137261284722
 30
0.0
 10
2.879408094618055
 20
-0.2428656684027778
 30
0.0
 10
2.681233723958333
 20
-0.1957668728298611
 30
0.0
 10
2.681233723958333
 20
-0.1957668728298611
 30
0.0
 10
2.681233723958333
 20
-0.05859375
 30
0.0
 10
2.681233723958333
 20
-0.05859375
 30
0.0
 10
2.681233723958333
 20
-0.05859375
 30
0.0
 10
2.1519775390625
 20
-0.05859375
 30
0.0
 10
2.1519775390625
 20
-0.05859375
 30
0.0
 10
2.1519775390625
 20
-0.05859375
 30
0.0
 10
2.1519775390625
 20
-0.55859375
 30
0.0
 10
2.1519775390625
 20
-0.55859375
 30
0.0
  0
HATCH
  5
CD
330
C8
100
AcDbEntity
  8
Layer 1
 62
     7
420
 16777215
100
AcDbHatch
 10
0.0
 20
0.0
 30
0.0
210
0.0
220
0.0
230
1.0
  2
SOLID
 70
     1
 71
     0
 91
        1
 92
        1
 93
        1
 72
     4
 94
        3
 73
     0
 74
     1
 95
       32
 96
       28
 40
0.0
 40
0.0
 40
0.0
 40
0.0
 40
1.0
 40
1.0
 40
1.0
 40
2.0
 40
2.0
 40
2.0
 40
3.0
 40
3.0
 40
3.0
 40
4.0
 40
4.0
 40
4.0
 40
5.0
 40
5.0
 40
5.0
 40
6.0
 40
6.0
 40
6.0
 40
7.0
 40
7.0
 40
7.0
 40
8.0
 40
8.0
 40
8.0
 40
9.0
 40
9.0
 40
9.0
 40
9.0
 10
2.1519775390625
 20
-0.55859375
 10
2.1519775390625
 20
-0.55859375
 10
2.4019775390625
 20
-0.55859375
 10
2.4019775390625
 20
-0.55859375
 10
2.540045844184028
 20
-0.55859375
 10
2.6519775390625
 20
-0.6705322265625
 10
2.6519775390625
 20
-0.80859375
 10
2.6519775390625
 20
-0.80859375
 10
2.6519775390625
 20
-1.05859375
 10
2.6519775390625
 20
-1.05859375
 10
2.6519775390625
 20
-1.05859375
 10
3.0269775390625
 20
-1.05859375
 10
3.0269775390625
 20
-1.05859375
 10
3.0269775390625
 20
-1.05859375
 10
3.0269775390625
 20
-0.6335856119791666
 10
3.0269775390625
 20
-0.6335856119791666
 10
3.0269775390625
 20
-0.4210137261284722
 10
2.879408094618055
 20
-0.2428656684027778
 10
2.681233723958333
 20
-0.1957668728298611
 10
2.681233723958333
 20
-0.1957668728298611
 10
2.681233723958333
 20
-0.05859375
 10
2.681233723958333
 20
-0.05859375
 10
2.681233723958333
 20
-0.05859375
 10
2.1519775390625
 20
-0.05859375
 10
2.1519775390625
 20
-0.05859375
 10
2.1519775390625
 20
-0.05859375
 10
2.1519775390625
 20
-0.55859375
 10
2.1519775390625
 20
-0.55859375
 97
        0
 75
     2
 76
     1
 98
        0
  0
ENDBLK
  5
CB
330
C8
100
AcDbEntity
  8
0
100
AcDbBlockEnd
  0
BLOCK
  5
D0
330
CE
100
AcDbEntity
  8
0
100
AcDbBlockBegin
  2
block 24
 70
     0
 71
     0
 10
0.0
 20
0.0
 30
0.0
  3
block 24
  1

  0
INSERT
  5
D3
330
CE
100
AcDbEntity
  8
Layer 1
100
AcDbBlockReference
  2
block 25
 10
0.0
 20
0.0
 30
0.0
  0
INSERT
  5
DB
330
CE
100
AcDbEntity
  8
Layer 1
100
AcDbBlockReference
  2
block 26
 10
0.0
 20
0.0
 30
0.0
  0
INSERT
  5
E3
330
CE
100
AcDbEntity
  8
Layer 1
100
AcDbBlockReference
  2
block 27
 10
0.0
 20
0.0
 30
0.0
  0
INSERT
  5
EB
330
CE
100
AcDbEntity
  8
Layer 1
100
AcDbBlockReference
  2
block 28
 10
0.0
 20
0.0
 30
0.0
  0
INSERT
  5
F3
330
CE
100
AcDbEntity
  8
Layer 1
100
AcDbBlockReference
  2
block 29
 10
0.0
 20
0.0
 30
0.0
  0
INSERT
  5
FB
330
CE
100
AcDbEntity
  8
Layer 1
100
AcDbBlockReference
  2
block 30
 10
0.0
 20
0.0
 30
0.0
  0
INSERT
  5
100
330
CE
100
AcDbEntity
  8
Layer 1
100
AcDbBlockReference
  2
block 31
 10
0.0
 20
0.0
 30
0.0
  0
INSERT
  5
105
330
CE
100
AcDbEntity
  8
Layer 1
100
AcDbBlockReference
  2
block 32
 10
0.0
 20
0.0
 30
0.0
  0
INSERT
  5
10A
330
CE
100
AcDbEntity
  8
Layer 1
100
AcDbBlockReference
  2
block 33
 10
0.0
 20
0.0
 30
0.0
  0
INSERT
  5
112
330
CE
100
AcDbEntity
  8
Layer 1
100
AcDbBlockReference
  2
block 34
 10
0.0
 20
0.0
 30
0.0
  0
ENDBLK
  5
D1
330
CE
100
AcDbEntity
  8
0
100
AcDbBlockEnd
  0
BLOCK
  5
D4
330
D2
100
AcDbEntity
  8
0
100
AcDbBlockBegin
  2
block 25
 70
     0
 71
     0
 10
0.0
 20
0.0
 30
0.0
  3
block 25
  1

  0
POLYLINE
  5
D6
330
D2
100
AcDbEntity
  8
Layer 1
370
     0
100
AcDb2dPolyline
 66
     1
 10
0.0
 20
0.0
 30
0.0
  0
VERTEX
  5
D7
330
D6
100
AcDbEntity
  8
Layer 1
370
     0
100
AcDbVertex
100
AcDb2dVertex
 10
2.097574869791667
 20
-0.05859375
 30
0.0
  0
VERTEX
  5
D8
330
D6
100
AcDbEntity
  8
Layer 1
370
     0
100
AcDbVertex
100
AcDb2dVertex
 10
2.097574869791667
 20
-1.05859375
 30
0.0
  0
SEQEND
  5
D9
330
D6
100
AcDbEntity
  8
Layer 1
370
     0
  0
ENDBLK
  5
D5
330
D2
100
AcDbEntity
  8
0
100
AcDbBlockEnd
  0
BLOCK
  5
DC
330
DA
100
AcDbEntity
  8
0
100
AcDbBlockBegin
  2
block 26
 70
     0
 71
     0
 10
0.0
 20
0.0
 30
0.0
  3
block 26
  1

  0
POLYLINE
  5
DE
330
DA
100
AcDbEntity
  8
Layer 1
370
     0
100
AcDb2dPolyline
 66
     1
 10
0.0
 20
0.0
 30
0.0
  0
VERTEX
  5
DF
330
DE
100
AcDbEntity
  8
Layer 1
370
     0
100
AcDbVertex
100
AcDb2dVertex
 10
1.097574869791667
 20
-0.5639444986979166
 30
0.0
  0
VERTEX
  5
E0
330
DE
100
AcDbEntity
  8
Layer 1
370
     0
100
AcDbVertex
100
AcDb2dVertex
 10
1.097574869791667
 20
-0.05859375
 30
0.0
  0
SEQEND
  5
E1
330
DE
100
AcDbEntity
  8
Layer 1
370
     0
  0
ENDBLK
  5
DD
330
DA
100
AcDbEntity
  8
0
100
AcDbBlockEnd
  0
BLOCK
  5
E4
330
E2
100
AcDbEntity
  8
0
100
AcDbBlockBegin
  2
block 27
 70
     0
 71
     0
 10
0.0
 20
0.0
 30
0.0
  3
block 27
  1

  0
POLYLINE
  5
E6
330
E2
100
AcDbEntity
  8
Layer 1
370
     0
100
AcDb2dPolyline
 66
     1
 10
0.0
 20
0.0
 30
0.0
  0
VERTEX
  5
E7
330
E6
100
AcDbEntity
  8
Layer 1
370
     0
100
AcDbVertex
100
AcDb2dVertex
 10
1.097574869791667
 20
-0.80859375
 30
0.0
  0
VERTEX
  5
E8
330
E6
100
AcDbEntity
  8
Layer 1
370
     0
100
AcDbVertex
100
AcDb2dVertex
 10
1.097574869791667
 20
-0.55859375
 30
0.0
  0
SEQEND
  5
E9
330
E6
100
AcDbEntity
  8
Layer 1
370
     0
  0
ENDBLK
  5
E5
330
E2
100
AcDbEntity
  8
0
100
AcDbBlockEnd
  0
BLOCK
  5
EC
330
EA
100
AcDbEntity
  8
0
100
AcDbBlockBegin
  2
block 28
 70
     0
 71
     0
 10
0.0
 20
0.0
 30
0.0
  3
block 28
  1

  0
POLYLINE
  5
EE
330
EA
100
AcDbEntity
  8
Layer 1
370
     0
100
AcDb2dPolyline
 66
     1
 10
0.0
 20
0.0
 30
0.0
  0
VERTEX
  5
EF
330
EE
100
AcDbEntity
  8
Layer 1
370
     0
100
AcDbVertex
100
AcDb2dVertex
 10
1.097574869791667
 20
-0.05859375
 30
0.0
  0
VERTEX
  5
F0
330
EE
100
AcDbEntity
  8
Layer 1
370
     0
100
AcDbVertex
100
AcDb2dVertex
 10
2.097574869791667
 20
-0.05859375
 30
0.0
  0
SEQEND
  5
F1
330
EE
100
AcDbEntity
  8
Layer 1
370
     0
  0
ENDBLK
  5
ED
330
EA
100
AcDbEntity
  8
0
100
AcDbBlockEnd
  0
BLOCK
  5
F4
330
F2
100
AcDbEntity
  8
0
100
AcDbBlockBegin
  2
block 29
 70
     0
 71
     0
 10
0.0
 20
0.0
 30
0.0
  3
block 29
  1

  0
POLYLINE
  5
F6
330
F2
100
AcDbEntity
  8
Layer 1
370
     0
100
AcDb2dPolyline
 66
     1
 10
0.0
 20
0.0
 30
0.0
  0
VERTEX
  5
F7
330
F6
100
AcDbEntity
  8
Layer 1
370
     0
100
AcDbVertex
100
AcDb2dVertex
 10
2.097574869791667
 20
-1.05859375
 30
0.0
  0
VERTEX
  5
F8
330
F6
100
AcDbEntity
  8
Layer 1
370
     0
100
AcDbVertex
100
AcDb2dVertex
 10
1.597574869791667
 20
-1.05859375
 30
0.0
  0
SEQEND
  5
F9
330
F6
100
AcDbEntity
  8
Layer 1
370
     0
  0
ENDBLK
  5
F5
330
F2
100
AcDbEntity
  8
0
100
AcDbBlockEnd
  0
BLOCK
  5
FC
330
FA
100
AcDbEntity
  8
0
100
AcDbBlockBegin
  2
block 30
 70
     0
 71
     0
 10
0.0
 20
0.0
 30
0.0
  3
block 30
  1

  0
SPLINE
  5
FE
330
FA
100
AcDbEntity
  8
Layer 1
370
     0
100
AcDbSpline
210
0.0
220
0.0
230
1.0
 70
    11
 71
     3
 72
    20
 73
    16
 74
     0
 42
0.0000000001
 43
0.0000000001
 40
0.0
 40
0.0
 40
0.0
 40
0.0
 40
1.0
 40
1.0
 40
1.0
 40
2.0
 40
2.0
 40
2.0
 40
3.0
 40
3.0
 40
3.0
 40
4.0
 40
4.0
 40
4.0
 40
5.0
 40
5.0
 40
5.0
 40
5.0
 10
2.003824869791667
 20
-0.18359375
 30
0.0
 10
2.003824869791667
 20
-0.1663343641493056
 30
0.0
 10
1.989841037326389
 20
-0.15234375
 30
0.0
 10
1.972574869791667
 20
-0.15234375
 30
0.0
 10
1.955308702256944
 20
-0.15234375
 30
0.0
 10
1.941324869791667
 20
-0.1663343641493056
 30
0.0
 10
1.941324869791667
 20
-0.18359375
 30
0.0
 10
1.941324869791667
 20
-0.2008531358506944
 30
0.0
 10
1.955308702256944
 20
-0.21484375
 30
0.0
 10
1.972574869791667
 20
-0.21484375
 30
0.0
 10
1.989841037326389
 20
-0.21484375
 30
0.0
 10
2.003824869791667
 20
-0.2008531358506944
 30
0.0
 10
2.003824869791667
 20
-0.18359375
 30
0.0
 10
2.003824869791667
 20
-0.18359375
 30
0.0
 10
2.003824869791667
 20
-0.18359375
 30
0.0
 10
2.003824869791667
 20
-0.18359375
 30
0.0
  0
ENDBLK
  5
FD
330
FA
100
AcDbEntity
  8
0
100
AcDbBlockEnd
  0
BLOCK
  5
101
330
FF
100
AcDbEntity
  8
0
100
AcDbBlockBegin
  2
block 31
 70
     0
 71
     0
 10
0.0
 20
0.0
 30
0.0
  3
block 31
  1

  0
SPLINE
  5
103
330
FF
100
AcDbEntity
  8
Layer 1
370
     0
100
AcDbSpline
210
0.0
220
0.0
230
1.0
 70
     8
 71
     3
 72
     8
 73
     4
 74
     0
 42
0.0000000001
 43
0.0000000001
 40
0.0
 40
0.0
 40
0.0
 40
0.0
 40
1.0
 40
1.0
 40
1.0
 40
1.0
 10
1.097574869791667
 20
-0.80859375
 30
0.0
 10
1.097574869791667
 20
-0.9466620551215277
 30
0.0
 10
1.209506564670139
 20
-1.05859375
 30
0.0
 10
1.347574869791667
 20
-1.05859375
 30
0.0
  0
ENDBLK
  5
102
330
FF
100
AcDbEntity
  8
0
100
AcDbBlockEnd
  0
BLOCK
  5
106
330
104
100
AcDbEntity
  8
0
100
AcDbBlockBegin
  2
block 32
 70
     0
 71
     0
 10
0.0
 20
0.0
 30
0.0
  3
block 32
  1

  0
SPLINE
  5
108
330
104
100
AcDbEntity
  8
Layer 1
370
     0
100
AcDbSpline
210
0.0
220
0.0
230
1.0
 70
    11
 71
     3
 72
    20
 73
    16
 74
     0
 42
0.0000000001
 43
0.0000000001
 40
0.0
 40
0.0
 40
0.0
 40
0.0
 40
1.0
 40
1.0
 40
1.0
 40
2.0
 40
2.0
 40
2.0
 40
3.0
 40
3.0
 40
3.0
 40
4.0
 40
4.0
 40
4.0
 40
5.0
 40
5.0
 40
5.0
 40
5.0
 10
1.472574869791667
 20
-0.80859375
 30
0.0
 10
1.472574869791667
 20
-0.7395562065972222
 30
0.0
 10
1.416598849826389
 20
-0.68359375
 30
0.0
 10
1.347574869791667
 20
-0.68359375
 30
0.0
 10
1.278544108072917
 20
-0.68359375
 30
0.0
 10
1.222574869791667
 20
-0.7395562065972222
 30
0.0
 10
1.222574869791667
 20
-0.80859375
 30
0.0
 10
1.222574869791667
 20
-0.8776312934027777
 30
0.0
 10
1.278544108072917
 20
-0.93359375
 30
0.0
 10
1.347574869791667
 20
-0.93359375
 30
0.0
 10
1.416598849826389
 20
-0.93359375
 30
0.0
 10
1.472574869791667
 20
-0.8776312934027777
 30
0.0
 10
1.472574869791667
 20
-0.80859375
 30
0.0
 10
1.472574869791667
 20
-0.80859375
 30
0.0
 10
1.472574869791667
 20
-0.80859375
 30
0.0
 10
1.472574869791667
 20
-0.80859375
 30
0.0
  0
ENDBLK
  5
107
330
104
100
AcDbEntity
  8
0
100
AcDbBlockEnd
  0
BLOCK
  5
10B
330
109
100
AcDbEntity
  8
0
100
AcDbBlockBegin
  2
block 33
 70
     0
 71
     0
 10
0.0
 20
0.0
 30
0.0
  3
block 33
  1

  0
POLYLINE
  5
10D
330
109
100
AcDbEntity
  8
Layer 1
370
     0
100
AcDb2dPolyline
 66
     1
 10
0.0
 20
0.0
 30
0.0
  0
VERTEX
  5
10E
330
10D
100
AcDbEntity
  8
Layer 1
370
     0
100
AcDbVertex
100
AcDb2dVertex
 10
1.597574869791667
 20
-1.05859375
 30
0.0
  0
VERTEX
  5
10F
330
10D
100
AcDbEntity
  8
Layer 1
370
     0
100
AcDbVertex
100
AcDb2dVertex
 10
1.347574869791667
 20
-1.05859375
 30
0.0
  0
SEQEND
  5
110
330
10D
100
AcDbEntity
  8
Layer 1
370
     0
  0
ENDBLK
  5
10C
330
109
100
AcDbEntity
  8
0
100
AcDbBlockEnd
  0
BLOCK
  5
113
330
111
100
AcDbEntity
  8
0
100
AcDbBlockBegin
  2
block 34
 70
     0
 71
     0
 10
0.0
 20
0.0
 30
0.0
  3
block 34
  1

  0
SPLINE
  5
115
330
111
100
AcDbEntity
  8
Layer 1
370
     0
100
AcDbSpline
210
0.0
220
0.0
230
1.0
 70
    11
 71
     3
 72
    32
 73
    28
 74
     0
 42
0.0000000001
 43
0.0000000001
 40
0.0
 40
0.0
 40
0.0
 40
0.0
 40
1.0
 40
1.0
 40
1.0
 40
2.0
 40
2.0
 40
2.0
 40
3.0
 40
3.0
 40
3.0
 40
4.0
 40
4.0
 40
4.0
 40
5.0
 40
5.0
 40
5.0
 40
6.0
 40
6.0
 40
6.0
 40
7.0
 40
7.0
 40
7.0
 40
8.0
 40
8.0
 40
8.0
 40
9.0
 40
9.0
 40
9.0
 40
9.0
 10
1.597574869791667
 20
-1.05859375
 30
0.0
 10
1.597574869791667
 20
-1.05859375
 30
0.0
 10
1.597574869791667
 20
-0.80859375
 30
0.0
 10
1.597574869791667
 20
-0.80859375
 30
0.0
 10
1.597574869791667
 20
-0.6705254448784722
 30
0.0
 10
1.485636393229167
 20
-0.55859375
 30
0.0
 10
1.347574869791667
 20
-0.55859375
 30
0.0
 10
1.347574869791667
 20
-0.55859375
 30
0.0
 10
1.097574869791667
 20
-0.55859375
 30
0.0
 10
1.097574869791667
 20
-0.55859375
 30
0.0
 10
1.097574869791667
 20
-0.55859375
 30
0.0
 10
1.097574869791667
 20
-0.18359375
 30
0.0
 10
1.097574869791667
 20
-0.18359375
 30
0.0
 10
1.097574869791667
 20
-0.18359375
 30
0.0
 10
1.5225830078125
 20
-0.18359375
 30
0.0
 10
1.5225830078125
 20
-0.18359375
 30
0.0
 10
1.735154893663194
 20
-0.18359375
 30
0.0
 10
1.913302951388889
 20
-0.3311631944444444
 30
0.0
 10
1.960401746961805
 20
-0.5293375651041666
 30
0.0
 10
1.960401746961805
 20
-0.5293375651041666
 30
0.0
 10
2.097574869791667
 20
-0.5293375651041666
 30
0.0
 10
2.097574869791667
 20
-0.5293375651041666
 30
0.0
 10
2.097574869791667
 20
-0.5293375651041666
 30
0.0
 10
2.097574869791667
 20
-1.05859375
 30
0.0
 10
2.097574869791667
 20
-1.05859375
 30
0.0
 10
2.097574869791667
 20
-1.05859375
 30
0.0
 10
1.597574869791667
 20
-1.05859375
 30
0.0
 10
1.597574869791667
 20
-1.05859375
 30
0.0
  0
HATCH
  5
116
330
111
100
AcDbEntity
  8
Layer 1
 62
     7
420
 16777215
100
AcDbHatch
 10
0.0
 20
0.0
 30
0.0
210
0.0
220
0.0
230
1.0
  2
SOLID
 70
     1
 71
     0
 91
        1
 92
        1
 93
        1
 72
     4
 94
        3
 73
     0
 74
     1
 95
       32
 96
       28
 40
0.0
 40
0.0
 40
0.0
 40
0.0
 40
1.0
 40
1.0
 40
1.0
 40
2.0
 40
2.0
 40
2.0
 40
3.0
 40
3.0
 40
3.0
 40
4.0
 40
4.0
 40
4.0
 40
5.0
 40
5.0
 40
5.0
 40
6.0
 40
6.0
 40
6.0
 40
7.0
 40
7.0
 40
7.0
 40
8.0
 40
8.0
 40
8.0
 40
9.0
 40
9.0
 40
9.0
 40
9.0
 10
1.597574869791667
 20
-1.05859375
 10
1.597574869791667
 20
-1.05859375
 10
1.597574869791667
 20
-0.80859375
 10
1.597574869791667
 20
-0.80859375
 10
1.597574869791667
 20
-0.6705254448784722
 10
1.485636393229167
 20
-0.55859375
 10
1.347574869791667
 20
-0.55859375
 10
1.347574869791667
 20
-0.55859375
 10
1.097574869791667
 20
-0.55859375
 10
1.097574869791667
 20
-0.55859375
 10
1.097574869791667
 20
-0.55859375
 10
1.097574869791667
 20
-0.18359375
 10
1.097574869791667
 20
-0.18359375
 10
1.097574869791667
 20
-0.18359375
 10
1.5225830078125
 20
-0.18359375
 10
1.5225830078125
 20
-0.18359375
 10
1.735154893663194
 20
-0.18359375
 10
1.913302951388889
 20
-0.3311631944444444
 10
1.960401746961805
 20
-0.5293375651041666
 10
1.960401746961805
 20
-0.5293375651041666
 10
2.097574869791667
 20
-0.5293375651041666
 10
2.097574869791667
 20
-0.5293375651041666
 10
2.097574869791667
 20
-0.5293375651041666
 10
2.097574869791667
 20
-1.05859375
 10
2.097574869791667
 20
-1.05859375
 10
2.097574869791667
 20
-1.05859375
 10
1.597574869791667
 20
-1.05859375
 10
1.597574869791667
 20
-1.05859375
 97
        0
 75
     2
 76
     1
 98
        0
  0
ENDBLK
  5
114
330
111
100
AcDbEntity
  8
0
100
AcDbBlockEnd
  0
BLOCK
  5
119
330
117
100
AcDbEntity
  8
0
100
AcDbBlockBegin
  2
block 35
 70
     0
 71
     0
 10
0.0
 20
0.0
 30
0.0
  3
block 35
  1

  0
INSERT
  5
11C
330
117
100
AcDbEntity
  8
Layer 1
100
AcDbBlockReference
  2
block 36
 10
0.0
 20
0.0
 30
0.0
  0
INSERT
  5
124
330
117
100
AcDbEntity
  8
Layer 1
100
AcDbBlockReference
  2
block 37
 10
0.0
 20
0.0
 30
0.0
  0
INSERT
  5
12C
330
117
100
AcDbEntity
  8
Layer 1
100
AcDbBlockReference
  2
block 38
 10
0.0
 20
0.0
 30
0.0
  0
INSERT
  5
134
330
117
100
AcDbEntity
  8
Layer 1
100
AcDbBlockReference
  2
block 39
 10
0.0
 20
0.0
 30
0.0
  0
INSERT
  5
13C
330
117
100
AcDbEntity
  8
Layer 1
100
AcDbBlockReference
  2
block 40
 10
0.0
 20
0.0
 30
0.0
  0
INSERT
  5
141
330
117
100
AcDbEntity
  8
Layer 1
100
AcDbBlockReference
  2
block 41
 10
0.0
 20
0.0
 30
0.0
  0
INSERT
  5
146
330
117
100
AcDbEntity
  8
Layer 1
100
AcDbBlockReference
  2
block 42
 10
0.0
 20
0.0
 30
0.0
  0
INSERT
  5
14B
330
117
100
AcDbEntity
  8
Layer 1
100
AcDbBlockReference
  2
block 43
 10
0.0
 20
0.0
 30
0.0
  0
INSERT
  5
153
330
117
100
AcDbEntity
  8
Layer 1
100
AcDbBlockReference
  2
block 44
 10
0.0
 20
0.0
 30
0.0
  0
INSERT
  5
15B
330
117
100
AcDbEntity
  8
Layer 1
100
AcDbBlockReference
  2
block 45
 10
0.0
 20
0.0
 30
0.0
  0
ENDBLK
  5
11A
330
117
100
AcDbEntity
  8
0
100
AcDbBlockEnd
  0
BLOCK
  5
11D
330
11B
100
AcDbEntity
  8
0
100
AcDbBlockBegin
  2
block 36
 70
     0
 71
     0
 10
0.0
 20
0.0
 30
0.0
  3
block 36
  1

  0
POLYLINE
  5
11F
330
11B
100
AcDbEntity
  8
Layer 1
370
     0
100
AcDb2dPolyline
 66
     1
 10
0.0
 20
0.0
 30
0.0
  0
VERTEX
  5
120
330
11F
100
AcDbEntity
  8
Layer 1
370
     0
100
AcDbVertex
100
AcDb2dVertex
 10
3.701022677951389
 20
-1.05859375
 30
0.0
  0
VERTEX
  5
121
330
11F
100
AcDbEntity
  8
Layer 1
370
     0
100
AcDbVertex
100
AcDb2dVertex
 10
4.206373426649305
 20
-1.05859375
 30
0.0
  0
SEQEND
  5
122
330
11F
100
AcDbEntity
  8
Layer 1
370
     0
  0
ENDBLK
  5
11E
330
11B
100
AcDbEntity
  8
0
100
AcDbBlockEnd
  0
BLOCK
  5
125
330
123
100
AcDbEntity
  8
0
100
AcDbBlockBegin
  2
block 37
 70
     0
 71
     0
 10
0.0
 20
0.0
 30
0.0
  3
block 37
  1

  0
POLYLINE
  5
127
330
123
100
AcDbEntity
  8
Layer 1
370
     0
100
AcDb2dPolyline
 66
     1
 10
0.0
 20
0.0
 30
0.0
  0
VERTEX
  5
128
330
127
100
AcDbEntity
  8
Layer 1
370
     0
100
AcDbVertex
100
AcDb2dVertex
 10
4.206373426649305
 20
-1.05859375
 30
0.0
  0
VERTEX
  5
129
330
127
100
AcDbEntity
  8
Layer 1
370
     0
100
AcDbVertex
100
AcDb2dVertex
 10
4.206373426649305
 20
-0.05859375
 30
0.0
  0
SEQEND
  5
12A
330
127
100
AcDbEntity
  8
Layer 1
370
     0
  0
ENDBLK
  5
126
330
123
100
AcDbEntity
  8
0
100
AcDbBlockEnd
  0
BLOCK
  5
12D
330
12B
100
AcDbEntity
  8
0
100
AcDbBlockBegin
  2
block 38
 70
     0
 71
     0
 10
0.0
 20
0.0
 30
0.0
  3
block 38
  1

  0
POLYLINE
  5
12F
330
12B
100
AcDbEntity
  8
Layer 1
370
     0
100
AcDb2dPolyline
 66
     1
 10
0.0
 20
0.0
 30
0.0
  0
VERTEX
  5
130
330
12F
100
AcDbEntity
  8
Layer 1
370
     0
100
AcDbVertex
100
AcDb2dVertex
 10
4.206373426649305
 20
-0.05859375
 30
0.0
  0
VERTEX
  5
131
330
12F
100
AcDbEntity
  8
Layer 1
370
     0
100
AcDbVertex
100
AcDb2dVertex
 10
3.206373426649305
 20
-0.05859375
 30
0.0
  0
SEQEND
  5
132
330
12F
100
AcDbEntity
  8
Layer 1
370
     0
  0
ENDBLK
  5
12E
330
12B
100
AcDbEntity
  8
0
100
AcDbBlockEnd
  0
BLOCK
  5
135
330
133
100
AcDbEntity
  8
0
100
AcDbBlockBegin
  2
block 39
 70
     0
 71
     0
 10
0.0
 20
0.0
 30
0.0
  3
block 39
  1

  0
POLYLINE
  5
137
330
133
100
AcDbEntity
  8
Layer 1
370
     0
100
AcDb2dPolyline
 66
     1
 10
0.0
 20
0.0
 30
0.0
  0
VERTEX
  5
138
330
137
100
AcDbEntity
  8
Layer 1
370
     0
100
AcDbVertex
100
AcDb2dVertex
 10
3.206373426649305
 20
-0.05859375
 30
0.0
  0
VERTEX
  5
139
330
137
100
AcDbEntity
  8
Layer 1
370
     0
100
AcDbVertex
100
AcDb2dVertex
 10
3.206373426649305
 20
-0.55859375
 30
0.0
  0
SEQEND
  5
13A
330
137
100
AcDbEntity
  8
Layer 1
370
     0
  0
ENDBLK
  5
136
330
133
100
AcDbEntity
  8
0
100
AcDbBlockEnd
  0
BLOCK
  5
13D
330
13B
100
AcDbEntity
  8
0
100
AcDbBlockBegin
  2
block 40
 70
     0
 71
     0
 10
0.0
 20
0.0
 30
0.0
  3
block 40
  1

  0
SPLINE
  5
13F
330
13B
100
AcDbEntity
  8
Layer 1
370
     0
100
AcDbSpline
210
0.0
220
0.0
230
1.0
 70
    11
 71
     3
 72
    20
 73
    16
 74
     0
 42
0.0000000001
 43
0.0000000001
 40
0.0
 40
0.0
 40
0.0
 40
0.0
 40
1.0
 40
1.0
 40
1.0
 40
2.0
 40
2.0
 40
2.0
 40
3.0
 40
3.0
 40
3.0
 40
4.0
 40
4.0
 40
4.0
 40
5.0
 40
5.0
 40
5.0
 40
5.0
 10
4.081373426649305
 20
-0.15234375
 30
0.0
 10
4.0986328125
 20
-0.15234375
 30
0.0
 10
4.112623426649305
 20
-0.1663275824652778
 30
0.0
 10
4.112623426649305
 20
-0.18359375
 30
0.0
 10
4.112623426649305
 20
-0.2008599175347222
 30
0.0
 10
4.0986328125
 20
-0.21484375
 30
0.0
 10
4.081373426649305
 20
-0.21484375
 30
0.0
 10
4.064114040798611
 20
-0.21484375
 30
0.0
 10
4.050123426649305
 20
-0.2008599175347222
 30
0.0
 10
4.050123426649305
 20
-0.18359375
 30
0.0
 10
4.050123426649305
 20
-0.1663275824652778
 30
0.0
 10
4.064114040798611
 20
-0.15234375
 30
0.0
 10
4.081373426649305
 20
-0.15234375
 30
0.0
 10
4.081373426649305
 20
-0.15234375
 30
0.0
 10
4.081373426649305
 20
-0.15234375
 30
0.0
 10
4.081373426649305
 20
-0.15234375
 30
0.0
  0
ENDBLK
  5
13E
330
13B
100
AcDbEntity
  8
0
100
AcDbBlockEnd
  0
BLOCK
  5
142
330
140
100
AcDbEntity
  8
0
100
AcDbBlockBegin
  2
block 41
 70
     0
 71
     0
 10
0.0
 20
0.0
 30
0.0
  3
block 41
  1

  0
SPLINE
  5
144
330
140
100
AcDbEntity
  8
Layer 1
370
     0
100
AcDbSpline
210
0.0
220
0.0
230
1.0
 70
     8
 71
     3
 72
     8
 73
     4
 74
     0
 42
0.0000000001
 43
0.0000000001
 40
0.0
 40
0.0
 40
0.0
 40
0.0
 40
1.0
 40
1.0
 40
1.0
 40
1.0
 10
3.456373426649305
 20
-1.05859375
 30
0.0
 10
3.318305121527778
 20
-1.05859375
 30
0.0
 10
3.206373426649305
 20
-0.9466620551215277
 30
0.0
 10
3.206373426649305
 20
-0.80859375
 30
0.0
  0
ENDBLK
  5
143
330
140
100
AcDbEntity
  8
0
100
AcDbBlockEnd
  0
BLOCK
  5
147
330
145
100
AcDbEntity
  8
0
100
AcDbBlockBegin
  2
block 42
 70
     0
 71
     0
 10
0.0
 20
0.0
 30
0.0
  3
block 42
  1

  0
SPLINE
  5
149
330
145
100
AcDbEntity
  8
Layer 1
370
     0
100
AcDbSpline
210
0.0
220
0.0
230
1.0
 70
    11
 71
     3
 72
    20
 73
    16
 74
     0
 42
0.0000000001
 43
0.0000000001
 40
0.0
 40
0.0
 40
0.0
 40
0.0
 40
1.0
 40
1.0
 40
1.0
 40
2.0
 40
2.0
 40
2.0
 40
3.0
 40
3.0
 40
3.0
 40
4.0
 40
4.0
 40
4.0
 40
5.0
 40
5.0
 40
5.0
 40
5.0
 10
3.456373426649305
 20
-0.68359375
 30
0.0
 10
3.525410970052083
 20
-0.68359375
 30
0.0
 10
3.581373426649305
 20
-0.7395697699652778
 30
0.0
 10
3.581373426649305
 20
-0.80859375
 30
0.0
 10
3.581373426649305
 20
-0.87762451171875
 30
0.0
 10
3.525410970052083
 20
-0.93359375
 30
0.0
 10
3.456373426649305
 20
-0.93359375
 30
0.0
 10
3.387335883246528
 20
-0.93359375
 30
0.0
 10
3.331373426649305
 20
-0.87762451171875
 30
0.0
 10
3.331373426649305
 20
-0.80859375
 30
0.0
 10
3.331373426649305
 20
-0.7395697699652778
 30
0.0
 10
3.387335883246528
 20
-0.68359375
 30
0.0
 10
3.456373426649305
 20
-0.68359375
 30
0.0
 10
3.456373426649305
 20
-0.68359375
 30
0.0
 10
3.456373426649305
 20
-0.68359375
 30
0.0
 10
3.456373426649305
 20
-0.68359375
 30
0.0
  0
ENDBLK
  5
148
330
145
100
AcDbEntity
  8
0
100
AcDbBlockEnd
  0
BLOCK
  5
14C
330
14A
100
AcDbEntity
  8
0
100
AcDbBlockBegin
  2
block 43
 70
     0
 71
     0
 10
0.0
 20
0.0
 30
0.0
  3
block 43
  1

  0
POLYLINE
  5
14E
330
14A
100
AcDbEntity
  8
Layer 1
370
     0
100
AcDb2dPolyline
 66
     1
 10
0.0
 20
0.0
 30
0.0
  0
VERTEX
  5
14F
330
14E
100
AcDbEntity
  8
Layer 1
370
     0
100
AcDbVertex
100
AcDb2dVertex
 10
3.206373426649305
 20
-0.55859375
 30
0.0
  0
VERTEX
  5
150
330
14E
100
AcDbEntity
  8
Layer 1
370
     0
100
AcDbVertex
100
AcDb2dVertex
 10
3.206373426649305
 20
-0.80859375
 30
0.0
  0
SEQEND
  5
151
330
14E
100
AcDbEntity
  8
Layer 1
370
     0
  0
ENDBLK
  5
14D
330
14A
100
AcDbEntity
  8
0
100
AcDbBlockEnd
  0
BLOCK
  5
154
330
152
100
AcDbEntity
  8
0
100
AcDbBlockBegin
  2
block 44
 70
     0
 71
     0
 10
0.0
 20
0.0
 30
0.0
  3
block 44
  1

  0
POLYLINE
  5
156
330
152
100
AcDbEntity
  8
Layer 1
370
     0
100
AcDb2dPolyline
 66
     1
 10
0.0
 20
0.0
 30
0.0
  0
VERTEX
  5
157
330
156
100
AcDbEntity
  8
Layer 1
370
     0
100
AcDbVertex
100
AcDb2dVertex
 10
3.456373426649305
 20
-1.05859375
 30
0.0
  0
VERTEX
  5
158
330
156
100
AcDbEntity
  8
Layer 1
370
     0
100
AcDbVertex
100
AcDb2dVertex
 10
3.706373426649305
 20
-1.05859375
 30
0.0
  0
SEQEND
  5
159
330
156
100
AcDbEntity
  8
Layer 1
370
     0
  0
ENDBLK
  5
155
330
152
100
AcDbEntity
  8
0
100
AcDbBlockEnd
  0
BLOCK
  5
15C
330
15A
100
AcDbEntity
  8
0
100
AcDbBlockBegin
  2
block 45
 70
     0
 71
     0
 10
0.0
 20
0.0
 30
0.0
  3
block 45
  1

  0
SPLINE
  5
15E
330
15A
100
AcDbEntity
  8
Layer 1
370
     0
100
AcDbSpline
210
0.0
220
0.0
230
1.0
 70
    11
 71
     3
 72
    32
 73
    28
 74
     0
 42
0.0000000001
 43
0.0000000001
 40
0.0
 40
0.0
 40
0.0
 40
0.0
 40
1.0
 40
1.0
 40
1.0
 40
2.0
 40
2.0
 40
2.0
 40
3.0
 40
3.0
 40
3.0
 40
4.0
 40
4.0
 40
4.0
 40
5.0
 40
5.0
 40
5.0
 40
6.0
 40
6.0
 40
6.0
 40
7.0
 40
7.0
 40
7.0
 40
8.0
 40
8.0
 40
8.0
 40
9.0
 40
9.0
 40
9.0
 40
9.0
 10
3.206373426649305
 20
-0.55859375
 30
0.0
 10
3.206373426649305
 20
-0.55859375
 30
0.0
 10
3.456373426649305
 20
-0.55859375
 30
0.0
 10
3.456373426649305
 20
-0.55859375
 30
0.0
 10
3.594441731770833
 20
-0.55859375
 30
0.0
 10
3.706373426649305
 20
-0.6705322265625
 30
0.0
 10
3.706373426649305
 20
-0.80859375
 30
0.0
 10
3.706373426649305
 20
-0.80859375
 30
0.0
 10
3.706373426649305
 20
-1.05859375
 30
0.0
 10
3.706373426649305
 20
-1.05859375
 30
0.0
 10
3.706373426649305
 20
-1.05859375
 30
0.0
 10
4.081373426649305
 20
-1.05859375
 30
0.0
 10
4.081373426649305
 20
-1.05859375
 30
0.0
 10
4.081373426649305
 20
-1.05859375
 30
0.0
 10
4.081373426649305
 20
-0.6335856119791666
 30
0.0
 10
4.081373426649305
 20
-0.6335856119791666
 30
0.0
 10
4.081373426649305
 20
-0.4210137261284722
 30
0.0
 10
3.933803982204861
 20
-0.2428656684027778
 30
0.0
 10
3.735629611545139
 20
-0.1957668728298611
 30
0.0
 10
3.735629611545139
 20
-0.1957668728298611
 30
0.0
 10
3.735629611545139
 20
-0.05859375
 30
0.0
 10
3.735629611545139
 20
-0.05859375
 30
0.0
 10
3.735629611545139
 20
-0.05859375
 30
0.0
 10
3.206373426649305
 20
-0.05859375
 30
0.0
 10
3.206373426649305
 20
-0.05859375
 30
0.0
 10
3.206373426649305
 20
-0.05859375
 30
0.0
 10
3.206373426649305
 20
-0.55859375
 30
0.0
 10
3.206373426649305
 20
-0.55859375
 30
0.0
  0
HATCH
  5
15F
330
15A
100
AcDbEntity
  8
Layer 1
 62
     7
420
 16777215
100
AcDbHatch
 10
0.0
 20
0.0
 30
0.0
210
0.0
220
0.0
230
1.0
  2
SOLID
 70
     1
 71
     0
 91
        1
 92
        1
 93
        1
 72
     4
 94
        3
 73
     0
 74
     1
 95
       32
 96
       28
 40
0.0
 40
0.0
 40
0.0
 40
0.0
 40
1.0
 40
1.0
 40
1.0
 40
2.0
 40
2.0
 40
2.0
 40
3.0
 40
3.0
 40
3.0
 40
4.0
 40
4.0
 40
4.0
 40
5.0
 40
5.0
 40
5.0
 40
6.0
 40
6.0
 40
6.0
 40
7.0
 40
7.0
 40
7.0
 40
8.0
 40
8.0
 40
8.0
 40
9.0
 40
9.0
 40
9.0
 40
9.0
 10
3.206373426649305
 20
-0.55859375
 10
3.206373426649305
 20
-0.55859375
 10
3.456373426649305
 20
-0.55859375
 10
3.456373426649305
 20
-0.55859375
 10
3.594441731770833
 20
-0.55859375
 10
3.706373426649305
 20
-0.6705322265625
 10
3.706373426649305
 20
-0.80859375
 10
3.706373426649305
 20
-0.80859375
 10
3.706373426649305
 20
-1.05859375
 10
3.706373426649305
 20
-1.05859375
 10
3.706373426649305
 20
-1.05859375
 10
4.081373426649305
 20
-1.05859375
 10
4.081373426649305
 20
-1.05859375
 10
4.081373426649305
 20
-1.05859375
 10
4.081373426649305
 20
-0.6335856119791666
 10
4.081373426649305
 20
-0.6335856119791666
 10
4.081373426649305
 20
-0.4210137261284722
 10
3.933803982204861
 20
-0.2428656684027778
 10
3.735629611545139
 20
-0.1957668728298611
 10
3.735629611545139
 20
-0.1957668728298611
 10
3.735629611545139
 20
-0.05859375
 10
3.735629611545139
 20
-0.05859375
 10
3.735629611545139
 20
-0.05859375
 10
3.206373426649305
 20
-0.05859375
 10
3.206373426649305
 20
-0.05859375
 10
3.206373426649305
 20
-0.05859375
 10
3.206373426649305
 20
-0.55859375
 10
3.206373426649305
 20
-0.55859375
 97
        0
 75
     2
 76
     1
 98
        0
  0
ENDBLK
  5
15D
330
15A
100
AcDbEntity
  8
0
100
AcDbBlockEnd
  0
ENDSEC
  0
SECTION
  2
ENTITIES
  0
INSERT
  5
3D
330
1F
100
AcDbEntity
  8
Layer 1
100
AcDbBlockReference
  2
block 2
 10
0.0
 20
0.0
 30
0.0
  0
INSERT
  5
86
330
1F
100
AcDbEntity
  8
Layer 1
100
AcDbBlockReference
  2
block 13
 10
0.0
 20
0.0
 30
0.0
  0
INSERT
  5
CF
330
1F
100
AcDbEntity
  8
Layer 1
100
AcDbBlockReference
  2
block 24
 10
0.0
 20
0.0
 30
0.0
  0
INSERT
  5
118
330
1F
100
AcDbEntity
  8
Layer 1
100
AcDbBlockReference
  2
block 35
 10
0.0
 20
0.0
 30
0.0
  0
ENDSEC
  0
SECTION
  2
OBJECTS
  0
DICTIONARY
  5
C
330
0
100
AcDbDictionary
281
     1
  3
ACAD_GROUP
350
D
  3
ACAD_LAYOUT
350
1A
  3
ACAD_MLINESTYLE
350
17
  3
ACAD_PLOTSETTINGS
350
19
  3
ACAD_PLOTSTYLENAME
350
E
  3
ACAD_TABLESTYLE
350
160
  3
ACAD_VISUALSTYLE
350
2A
  0
DICTIONARY
  5
D
102
{ACAD_REACTORS
330
C
102
}
330
C
100
AcDbDictionary
281
     1
  0
DICTIONARY
  5
1A
102
{ACAD_REACTORS
330
C
102
}
330
C
100
AcDbDictionary
281
     1
  3
Layout1
350
1E
  3
Layout2
350
26
  3
Model
350
22
  0
DICTIONARY
  5
17
102
{ACAD_REACTORS
330
C
102
}
330
C
100
AcDbDictionary
281
     1
  3
Standard
350
18
  0
DICTIONARY
  5
19
102
{ACAD_REACTORS
330
C
102
}
330
C
100
AcDbDictionary
281
     1
  0
ACDBDICTIONARYWDFLT
  5
E
102
{ACAD_REACTORS
330
C
102
}
330
C
100
AcDbDictionary
281
     1
  3
Normal
350
F
100
AcDbDictionaryWithDefault
340
F
  0
DICTIONARY
  5
160
102
{ACAD_REACTORS
330
C
102
}
330
C
100
AcDbDictionary
281
     1
  0
DICTIONARY
  5
2A
102
{ACAD_REACTORS
330
C
102
}
330
C
100
AcDbDictionary
281
     1
  3
2dWireframe
350
2F
  3
3D Hidden
350
31
  3
3dWireframe
350
30
  3
Basic
350
32
  3
Brighten
350
36
  3
ColorChange
350
3A
  3
Conceptual
350
34
  3
Dim
350
35
  3
Facepattern
350
39
  3
Flat
350
2B
  3
FlatWithEdges
350
2C
  3
Gouraud
350
2D
  3
GouraudWithEdges
350
2E
  3
Linepattern
350
38
  3
Realistic
350
33
  3
Thicken
350
37
  0
LAYOUT
  5
1E
102
{ACAD_REACTORS
330
1A
102
}
330
1A
100
AcDbPlotSettings
  1

  2
none_device
  4

  6

 40
0.0
 41
0.0
 42
0.0
 43
0.0
 44
0.0
 45
0.0
 46
0.0
 47
0.0
 48
0.0
 49
0.0
140
0.0
141
0.0
142
1.0
143
1.0
 70
   688
 72
     0
 73
     0
 74
     5
  7

 75
    16
 76
     0
 77
     2
 78
   300
147
1.0
148
0.0
149
0.0
100
AcDbLayout
  1
Layout1
 70
     1
 71
     1
 10
0.0
 20
0.0
 11
12.0
 21
9.0
 12
0.0
 22
0.0
 32
0.0
 14
1.000000000000000E+20
 24
1.000000000000000E+20
 34
1.000000000000000E+20
 15
-1.000000000000000E+20
 25
-1.000000000000000E+20
 35
-1.000000000000000E+20
146
0.0
 13
0.0
 23
0.0
 33
0.0
 16
1.0
 26
0.0
 36
0.0
 17
0.0
 27
1.0
 37
0.0
 76
     0
330
1B
  0
LAYOUT
  5
26
102
{ACAD_REACTORS
330
1A
102
}
330
1A
100
AcDbPlotSettings
  1

  2
none_device
  4

  6

 40
0.0
 41
0.0
 42
0.0
 43
0.0
 44
0.0
 45
0.0
 46
0.0
 47
0.0
 48
0.0
 49
0.0
140
0.0
141
0.0
142
1.0
143
1.0
 70
   688
 72
     0
 73
     0
 74
     5
  7

 75
    16
 76
     0
 77
     2
 78
   300
147
1.0
148
0.0
149
0.0
100
AcDbLayout
  1
Layout2
 70
     1
 71
     2
 10
0.0
 20
0.0
 11
0.0
 21
0.0
 12
0.0
 22
0.0
 32
0.0
 14
0.0
 24
0.0
 34
0.0
 15
0.0
 25
0.0
 35
0.0
146
0.0
 13
0.0
 23
0.0
 33
0.0
 16
1.0
 26
0.0
 36
0.0
 17
0.0
 27
1.0
 37
0.0
 76
     0
330
23
  0
LAYOUT
  5
22
102
{ACAD_REACTORS
330
1A
102
}
330
1A
100
AcDbPlotSettings
  1

  2
none_device
  4

  6

 40
0.0
 41
0.0
 42
0.0
 43
0.0
 44
0.0
 45
0.0
 46
0.0
 47
0.0
 48
0.0
 49
0.0
140
0.0
141
0.0
142
1.0
143
1.0
 70
  1712
 72
     0
 73
     0
 74
     0
  7

 75
     0
 76
     0
 77
     2
 78
   300
147
1.0
148
0.0
149
0.0
100
AcDbLayout
  1
Model
 70
     1
 71
     0
 10
0.0
 20
0.0
 11
12.0
 21
9.0
 12
0.0
 22
0.0
 32
0.0
 14
1.000000000000000E+20
 24
1.000000000000000E+20
 34
1.000000000000000E+20
 15
-1.000000000000000E+20
 25
-1.000000000000000E+20
 35
-1.000000000000000E+20
146
0.0
 13
0.0
 23
0.0
 33
0.0
 16
1.0
 26
0.0
 36
0.0
 17
0.0
 27
1.0
 37
0.0
 76
     0
330
1F
331
29
  0
MLINESTYLE
  5
18
102
{ACAD_REACTORS
330
17
102
}
330
17
100
AcDbMlineStyle
  2
Standard
 70
     0
  3

 62
   256
 51
90.0
 52
90.0
 71
     2
 49
0.5
 62
   256
  6
BYLAYER
 49
-0.5
 62
   256
  6
BYLAYER
  0
ACDBPLACEHOLDER
  5
F
102
{ACAD_REACTORS
330
E
102
}
330
E
  0
VISUALSTYLE
  5
2F
102
{ACAD_REACTORS
330
2A
102
}
330
2A
100
AcDbVisualStyle
  2
2dWireframe
 70
     4
 71
     0
 72
     2
 73
     0
 90
        0
 40
-0.6
 41
-30.0
 62
     5
 63
     7
421
 16777215
 74
     1
 91
        4
 64
     7
 65
   257
 75
     1
175
     1
 42
1.0
 92
        0
 66
   257
 43
1.0
 76
     1
 77
     6
 78
     2
 67
     7
 79
     5
170
     0
171
     0
290
     0
174
     0
 93
        1
 44
0.0
173
     0
291
     0
 45
0.0
1001
ACAD
1000
AcDbSavedByObjectVersion
1070
     0
  0
VISUALSTYLE
  5
31
102
{ACAD_REACTORS
330
2A
102
}
330
2A
100
AcDbVisualStyle
  2
3D Hidden
 70
     6
 71
     1
 72
     2
 73
     2
 90
        0
 40
-0.6
 41
-30.0
 62
     5
 63
     7
421
 16777215
 74
     2
 91
        2
 64
     7
 65
   257
 75
     2
175
     1
 42
40.0
 92
        0
 66
   257
 43
1.0
 76
     1
 77
     6
 78
     2
 67
     7
 79
     3
170
     0
171
     0
290
     0
174
     0
 93
        1
 44
0.0
173
     0
291
     0
 45
0.0
1001
ACAD
1000
AcDbSavedByObjectVersion
1070
     0
  0
VISUALSTYLE
  5
30
102
{ACAD_REACTORS
330
2A
102
}
330
2A
100
AcDbVisualStyle
  2
3dWireframe
 70
     5
 71
     0
 72
     2
 73
     0
 90
        0
 40
-0.6
 41
-30.0
 62
     5
 63
     7
421
 16777215
 74
     1
 91
        4
 64
     7
 65
   257
 75
     1
175
     1
 42
1.0
 92
        0
 66
   257
 43
1.0
 76
     1
 77
     6
 78
     2
 67
     7
 79
     5
170
     0
171
     0
290
     0
174
     0
 93
        1
 44
0.0
173
     0
291
     0
 45
0.0
1001
ACAD
1000
AcDbSavedByObjectVersion
1070
     0
  0
VISUALSTYLE
  5
32
102
{ACAD_REACTORS
330
2A
102
}
330
2A
100
AcDbVisualStyle
  2
Basic
 70
     7
 71
     1
 72
     0
 73
     1
 90
        0
 40
-0.6
 41
-30.0
 62
     5
 63
     7
421
 16777215
 74
     0
 91
        4
 64
     7
 65
   257
 75
     1
175
     1
 42
1.0
 92
        8
 66
     7
 43
1.0
 76
     1
 77
     6
 78
     2
 67
     7
 79
     5
170
     0
171
     0
290
     0
174
     0
 93
        1
 44
0.0
173
     0
291
     1
 45
0.0
1001
ACAD
1000
AcDbSavedByObjectVersion
1070
     0
  0
VISUALSTYLE
  5
36
102
{ACAD_REACTORS
330
2A
102
}
330
2A
100
AcDbVisualStyle
  2
Brighten
 70
    12
 71
     2
 72
     2
 73
     0
 90
        0
 40
-0.6
 41
-30.0
 62
     5
 63
     7
421
 16777215
 74
     1
 91
        4
 64
     7
 65
   257
 75
     1
175
     1
 42
1.0
 92
        8
 66
     7
 43
1.0
 76
     1
 77
     6
 78
     2
 67
     7
 79
     5
170
     0
171
     0
290
     0
174
     0
 93
        1
 44
50.0
173
     0
291
     1
 45
0.0
1001
ACAD
1000
AcDbSavedByObjectVersion
1070
     0
  0
VISUALSTYLE
  5
3A
102
{ACAD_REACTORS
330
2A
102
}
330
2A
100
AcDbVisualStyle
  2
ColorChange
 70
    16
 71
     2
 72
     2
 73
     3
 90
        0
 40
-0.6
 41
-30.0
 62
     5
 63
     8
421
  8421504
 74
     1
 91
        4
 64
     7
 65
   257
 75
     1
175
     1
 42
1.0
 92
        8
 66
     8
424
  8421504
 43
1.0
 76
     1
 77
     6
 78
     2
 67
     7
 79
     5
170
     0
171
     0
290
     0
174
     0
 93
        1
 44
0.0
173
     0
291
     1
 45
0.0
1001
ACAD
1000
AcDbSavedByObjectVersion
1070
     0
  0
VISUALSTYLE
  5
34
102
{ACAD_REACTORS
330
2A
102
}
330
2A
100
AcDbVisualStyle
  2
Conceptual
 70
     9
 71
     3
 72
     2
 73
     0
 90
        0
 40
-0.6
 41
-30.0
 62
     5
 63
     7
421
 16777215
 74
     2
 91
        2
 64
     7
 65
   257
 75
     1
175
     1
 42
40.0
 92
        8
 66
     7
 43
1.0
 76
     1
 77
     6
 78
     2
 67
     7
 79
     3
170
     0
171
     0
290
     0
174
     0
 93
        1
 44
0.0
173
     0
291
     0
 45
0.0
1001
ACAD
1000
AcDbSavedByObjectVersion
1070
     0
  0
VISUALSTYLE
  5
35
102
{ACAD_REACTORS
330
2A
102
}
330
2A
100
AcDbVisualStyle
  2
Dim
 70
    11
 71
     2
 72
     2
 73
     0
 90
        0
 40
-0.6
 41
-30.0
 62
     5
 63
     7
421
 16777215
 74
     1
 91
        4
 64
     7
 65
   257
 75
     1
175
     1
 42
1.0
 92
        8
 66
     7
 43
1.0
 76
     1
 77
     6
 78
     2
 67
     7
 79
     5
170
     0
171
     0
290
     0
174
     0
 93
        1
 44
-50.0
173
     0
291
     1
 45
0.0
1001
ACAD
1000
AcDbSavedByObjectVersion
1070
     0
  0
VISUALSTYLE
  5
39
102
{ACAD_REACTORS
330
2A
102
}
330
2A
100
AcDbVisualStyle
  2
Facepattern
 70
    15
 71
     2
 72
     2
 73
     0
 90
        0
 40
-0.6
 41
-30.0
 62
     5
 63
     7
421
 16777215
 74
     1
 91
        4
 64
     7
 65
   257
 75
     1
175
     1
 42
1.0
 92
        8
 66
     7
 43
1.0
 76
     1
 77
     6
 78
     2
 67
     7
 79
     5
170
     0
171
     0
290
     0
174
     0
 93
        1
 44
0.0
173
     0
291
     1
 45
0.0
1001
ACAD
1000
AcDbSavedByObjectVersion
1070
     0
  0
VISUALSTYLE
  5
2B
102
{ACAD_REACTORS
330
2A
102
}
330
2A
100
AcDbVisualStyle
  2
Flat
 70
     0
 71
     2
 72
     1
 73
     1
 90
        2
 40
-0.6
 41
30.0
 62
     5
 63
     7
421
 16777215
 74
     0
 91
        4
 64
     7
 65
   257
 75
     1
175
     1
 42
1.0
 92
        8
 66
     7
 43
1.0
 76
     1
 77
     6
 78
     2
 67
     7
 79
     5
170
     0
171
     0
290
     0
174
     0
 93
       13
 44
0.0
173
     0
291
     1
 45
0.0
1001
ACAD
1000
AcDbSavedByObjectVersion
1070
     0
  0
VISUALSTYLE
  5
2C
102
{ACAD_REACTORS
330
2A
102
}
330
2A
100
AcDbVisualStyle
  2
FlatWithEdges
 70
     1
 71
     2
 72
     1
 73
     1
 90
        2
 40
-0.6
 41
30.0
 62
     5
 63
     7
421
 16777215
 74
     1
 91
        4
 64
     7
 65
   257
 75
     1
175
     1
 42
1.0
 92
        0
 66
   257
 43
1.0
 76
     1
 77
     6
 78
     2
 67
     7
 79
     5
170
     0
171
     0
290
     0
174
     0
 93
       13
 44
0.0
173
     0
291
     1
 45
0.0
1001
ACAD
1000
AcDbSavedByObjectVersion
1070
     0
  0
VISUALSTYLE
  5
2D
102
{ACAD_REACTORS
330
2A
102
}
330
2A
100
AcDbVisualStyle
  2
Gouraud
 70
     2
 71
     2
 72
     2
 73
     1
 90
        2
 40
-0.6
 41
30.0
 62
     5
 63
     7
421
 16777215
 74
     0
 91
        4
 64
     7
 65
   257
 75
     1
175
     1
 42
1.0
 92
        0
 66
     7
 43
1.0
 76
     1
 77
     6
 78
     2
 67
     7
 79
     5
170
     0
171
     0
290
     0
174
     0
 93
       13
 44
0.0
173
     0
291
     1
 45
0.0
1001
ACAD
1000
AcDbSavedByObjectVersion
1070
     0
  0
VISUALSTYLE
  5
2E
102
{ACAD_REACTORS
330
2A
102
}
330
2A
100
AcDbVisualStyle
  2
GouraudWithEdges
 70
     3
 71
     2
 72
     2
 73
     1
 90
        2
 40
-0.6
 41
30.0
 62
     5
 63
     7
421
 16777215
 74
     1
 91
        4
 64
     7
 65
   257
 75
     1
175
     1
 42
1.0
 92
        0
 66
   257
 43
1.0
 76
     1
 77
     6
 78
     2
 67
     7
 79
     5
170
     0
171
     0
290
     0
174
     0
 93
       13
 44
0.0
173
     0
291
     1
 45
0.0
1001
ACAD
1000
AcDbSavedByObjectVersion
1070
     0
  0
VISUALSTYLE
  5
38
102
{ACAD_REACTORS
330
2A
102
}
330
2A
100
AcDbVisualStyle
  2
Linepattern
 70
    14
 71
     2
 72
     2
 73
     0
 90
        0
 40
-0.6
 41
-30.0
 62
     5
 63
     7
421
 16777215
 74
     1
 91
        4
 64
     7
 65
   257
 75
     7
175
     7
 42
1.0
 92
        8
 66
     7
 43
1.0
 76
     1
 77
     6
 78
     2
 67
     7
 79
     5
170
     0
171
     0
290
     0
174
     0
 93
        1
 44
0.0
173
     0
291
     1
 45
0.0
1001
ACAD
1000
AcDbSavedByObjectVersion
1070
     0
  0
VISUALSTYLE
  5
33
102
{ACAD_REACTORS
330
2A
102
}
330
2A
100
AcDbVisualStyle
  2
Realistic
 70
     8
 71
     2
 72
     2
 73
     0
 90
        0
 40
-0.6
 41
-30.0
 62
     5
 63
     7
421
 16777215
 74
     1
 91
        0
 64
     7
 65
   257
 75
     1
175
     1
 42
1.0
 92
        8
 66
     8
424
  7895160
 43
1.0
 76
     1
 77
     6
 78
     2
 67
     7
 79
     5
170
     0
171
     0
290
     0
174
     0
 93
       13
 44
0.0
173
     0
291
     0
 45
0.0
1001
ACAD
1000
AcDbSavedByObjectVersion
1070
     0
  0
VISUALSTYLE
  5
37
102
{ACAD_REACTORS
330
2A
102
}
330
2A
100
AcDbVisualStyle
  2
Thicken
 70
    13
 71
     2
 72
     2
 73
     0
 90
        0
 40
-0.6
 41
-30.0
 62
     5
 63
     7
421
 16777215
 74
     1
 91
        4
 64
     7
 65
   257
 75
     1
175
     1
 42
1.0
 92
       12
 66
     7
 43
1.0
 76
     1
 77
     6
 78
     2
 67
     7
 79
     5
170
     0
171
     0
290
     0
174
     0
 93
        1
 44
0.0
173
     0
291
     1
 45
0.0
1001
ACAD
1000
AcDbSavedByObjectVersion
1070
     0
  0
ENDSEC
  0
EOF
